<?xml version="1.0" encoding="UTF-8"?>
<svg width="907px" height="660px" viewBox="0 0 907 660" version="1.1" xmlns="http://www.w3.org/2000/svg" xmlns:xlink="http://www.w3.org/1999/xlink">
    <!-- Generator: Sketch 55.1 (78136) - https://sketchapp.com -->
    <title>emblem-color</title>
    <desc>Created with Sketch.</desc>
    <defs>
        <linearGradient x1="0%" y1="23.5940795%" x2="100%" y2="76.4059205%" id="linearGradient-1">
            <stop stop-color="#81FFEF" offset="0%"></stop>
            <stop stop-color="#F067B4" offset="100%"></stop>
        </linearGradient>
    </defs>
    <g id="emblem-color" stroke="none" stroke-width="1" fill="none" fill-rule="evenodd">
        <g id="emblem-body-color" fill="url(#linearGradient-1)">
            <g id="emblem-body">
                <path d="M560.064163,488.315014 C557.411152,491.658759 554.607897,494.843045 551.6544,497.867873 C525.849471,524.35609 490.368226,537.6 445.2096,537.6 C410.941523,537.6 377.292967,531.218805 344.263355,518.456269 L344.263355,544.42007 L266.755658,544.42007 L76.2159022,235.599433 L76.2159022,544.42007 L-1.13686838e-13,544.42007 L-1.13686838e-13,123.36 L83.3207745,123.36 L268.047453,421.800112 L268.047453,123.36 L344.263355,123.36 L344.263355,424.504738 C374.62773,437.735716 404.244312,444.351131 433.1136,444.351131 C456.230516,444.351131 473.030348,437.594034 483.5136,424.079638 C493.996852,410.565242 499.2384,390.023667 499.2384,362.454299 L499.2384,0 L595.2,0 L595.2,292.822464 C599.111769,287.13475 603.322407,281.712802 607.831914,276.556625 C640.561407,239.385356 683.625883,220.8 737.026634,220.8 C762.865707,220.8 785.259234,223.933577 804.207888,230.200826 C823.156542,236.468075 839.521043,245.220481 853.301882,256.458307 C880.432908,278.501734 898.089343,309.405291 906.271717,349.169905 L824.879043,364.081561 C817.988624,342.038134 807.330166,324.209158 792.90335,310.5941 C778.476534,296.979042 760.497116,290.171615 738.964555,290.171615 C709.680272,290.171615 685.99481,302.489816 667.907459,327.126588 C648.528154,353.92448 638.838647,390.987138 638.838647,438.315673 C638.838647,485.644208 647.451542,522.598811 664.677591,549.180591 C681.90364,575.762371 705.373779,589.053061 735.088713,589.053061 C764.803647,589.053061 787.197175,581.813417 802.269967,567.333911 C817.34276,552.854405 824.879043,534.160994 824.879043,511.253119 L906.91769,511.253119 C906.91769,558.365542 891.952785,594.779873 862.022525,620.497205 C832.092265,646.214537 791.073352,659.07301 738.964555,659.07301 C683.410547,659.07301 639.26946,639.623218 606.539967,600.723053 C581.874585,571.145093 566.382719,533.675969 560.064163,488.315014 Z" id="Combined-Shape" fill-rule="nonzero"></path>
            </g>
        </g>
    </g>
</svg>