<?xml version="1.0" encoding="UTF-8"?>
<svg width="1076px" height="1076px" viewBox="0 0 1076 1076" version="1.1" xmlns="http://www.w3.org/2000/svg" xmlns:xlink="http://www.w3.org/1999/xlink">
    <!-- Generator: Sketch 55.1 (78136) - https://sketchapp.com -->
    <title>emblem</title>
    <desc>Created with Sketch.</desc>
    <defs>
        <linearGradient x1="24.7697925%" y1="21.8932079%" x2="104.65707%" y2="87.1063794%" id="linearGradient-1">
            <stop stop-color="#333333" offset="0%"></stop>
            <stop stop-color="#323232" offset="0%"></stop>
            <stop stop-color="#313131" offset="8.83734027%"></stop>
            <stop stop-color="#000000" offset="100%"></stop>
        </linearGradient>
        <filter x="-1.2%" y="-1.4%" width="102.3%" height="102.8%" filterUnits="objectBoundingBox" id="filter-2">
            <feOffset dx="0" dy="2" in="SourceAlpha" result="shadowOffsetOuter1"></feOffset>
            <feGaussianBlur stdDeviation="2" in="shadowOffsetOuter1" result="shadowBlurOuter1"></feGaussianBlur>
            <feColorMatrix values="0 0 0 0 0   0 0 0 0 0   0 0 0 0 0  0 0 0 0.5 0" type="matrix" in="shadowBlurOuter1" result="shadowMatrixOuter1"></feColorMatrix>
            <feMerge>
                <feMergeNode in="shadowMatrixOuter1"></feMergeNode>
                <feMergeNode in="SourceGraphic"></feMergeNode>
            </feMerge>
        </filter>
        <linearGradient x1="39.9602628%" y1="0%" x2="60.0397372%" y2="100%" id="linearGradient-3">
            <stop stop-color="#81FFEF" offset="0%"></stop>
            <stop stop-color="#F067B4" offset="100%"></stop>
        </linearGradient>
        <linearGradient x1="41.806848%" y1="0%" x2="58.193152%" y2="100%" id="linearGradient-4">
            <stop stop-color="#81FFEF" offset="0%"></stop>
            <stop stop-color="#F067B4" offset="100%"></stop>
        </linearGradient>
        <linearGradient x1="31.8456469%" y1="8.78757409%" x2="89.3284026%" y2="104.40834%" id="linearGradient-5">
            <stop stop-color="#333333" offset="0%"></stop>
            <stop stop-color="#323232" offset="0%"></stop>
            <stop stop-color="#313131" offset="8.83734027%"></stop>
            <stop stop-color="#000000" offset="100%"></stop>
        </linearGradient>
        <linearGradient x1="0%" y1="23.6086926%" x2="100%" y2="76.3913074%" id="linearGradient-6">
            <stop stop-color="#81FFEF" offset="0%"></stop>
            <stop stop-color="#F067B4" offset="100%"></stop>
        </linearGradient>
    </defs>
    <g id="emblem" stroke="none" stroke-width="1" fill="none" fill-rule="evenodd">
        <g id="Group" filter="url(#filter-2)" transform="translate(27.000000, 116.000000)">
            <g id="speaker">
                <path d="M795.38456,618.32359 C778.003028,625.619959 758.002902,617.485494 750.680722,600.151689 C743.368423,582.808023 751.530529,562.851469 768.90218,555.56496 C777.08405,552.084395 785.176986,547.647415 793.062411,542.352617 C800.661273,537.245159 807.795705,531.339045 814.426182,524.752593 C821.027014,518.146421 826.975668,510.997952 832.064633,503.435365 C837.380872,495.576979 841.82754,487.491813 845.295941,479.317908 C848.991617,470.581986 851.847366,461.491105 853.73473,452.094566 C855.523278,443.289623 856.452138,433.755044 856.452138,423.500689 C856.452138,413.246333 855.503515,403.682174 853.73473,394.896952 C851.847366,385.510272 848.991617,376.409531 845.295941,367.683469 C841.82754,359.509564 837.380872,351.424399 832.064633,343.575872 C826.946023,336.003425 821.027014,328.864816 814.426182,322.258644 C801.264044,309.135041 785.819283,298.604606 768.90218,291.446277 C751.530529,284.149908 743.368423,264.173634 750.680722,246.849689 C758.002902,229.506023 778.022791,221.381418 795.38456,228.677787 C820.977606,239.49416 843.853244,254.944714 862.875103,273.915272 C872.420618,283.439991 881.116325,293.970426 888.814002,305.368537 C896.205352,316.30323 902.717251,328.302798 908.201475,341.239063 C913.616529,354.027427 917.835923,367.50599 920.67191,381.546569 C923.498014,395.547709 925,409.598148 925,423.510549 C925,437.422949 923.517777,451.473388 920.67191,465.474528 C917.835923,479.534828 913.616529,492.99367 908.201475,505.772175 C902.717251,518.708439 896.205352,530.717867 888.814002,541.66242 C881.116325,553.060531 872.420618,563.610686 862.875103,573.115685 C853.329589,582.640404 842.7564,591.327027 831.353166,599.017794 C820.384717,606.343742 808.339187,612.841454 795.38456,618.32359 Z" id="Path" fill="url(#linearGradient-3)"></path>
                <path d="M816.282545,732.324463 C798.938938,739.614286 778.982452,731.49697 771.676248,714.178716 C764.379905,696.860461 772.514342,676.91196 789.857948,669.612286 C805.476068,663.012042 820.630771,654.727257 835.115,644.974656 C849.38231,635.369822 862.772087,624.307024 875.057552,612.032539 C887.343017,599.758054 898.395992,586.390095 908.019278,572.145387 C917.780603,557.674104 926.062939,542.532946 932.678948,526.928785 C939.571035,510.635046 944.895394,493.572921 948.474546,475.949282 C951.87622,459.123583 953.651007,441.263518 953.651007,422.49715 C953.651007,403.730782 951.8565,385.860866 948.474546,369.035167 C944.915114,351.43123 939.590755,334.359254 932.678948,318.075366 C926.062939,302.471205 917.780603,287.320195 908.019278,272.848912 C898.395992,258.604205 887.343017,245.236246 875.057552,232.961761 C862.772087,220.687276 849.38231,209.64418 835.115,200.029495 C820.630771,190.276894 805.476068,182.00196 789.857948,175.391864 C772.514342,168.092191 764.379905,148.123987 771.676248,130.825435 C778.982452,113.507181 798.968518,105.380014 816.282545,112.679687 C836.663008,121.289559 855.751821,131.623375 873.312345,143.45456 C891.415166,155.650237 908.167177,169.451644 923.38104,184.651909 C938.594903,199.852175 952.408656,216.608916 964.625102,234.685706 C976.457011,252.240387 986.809931,271.302288 995.427505,291.664536 C1004.04508,311.987379 1010.71039,333.433249 1015.21637,355.696762 C1019.67306,377.753401 1022,400.085871 1022,422.507001 C1022,444.908429 1019.67306,467.270453 1015.21637,489.297538 C1010.71039,511.570902 1004.04508,533.006921 995.427505,553.329764 C986.809931,573.682161 976.457011,592.753913 964.625102,610.298743 C952.428376,628.385384 938.594903,645.142125 923.38104,660.34239 C908.167177,675.522953 891.395446,689.334212 873.292626,701.539739 C855.741961,713.370925 836.663008,723.704741 816.282545,732.324463 Z" id="Path" fill="url(#linearGradient-4)"></path>
                <path d="M612.281259,17.9867794 C506.935492,82.0044094 401.559203,146.046676 296.198174,210.051988 L91.0463346,210.051988 C40.9906897,210.051988 0,243.126326 0,283.529987 L0,560.479838 C0,600.895817 40.9906897,633.957837 91.0463346,633.957837 L296.182914,633.957837 C401.543942,697.975467 506.935492,762.005415 612.265998,826.023045 C660.291948,855.180199 715.933073,850.511606 715.933073,799.896166 C715.933073,547.976876 715.933073,296.045267 715.933073,44.1259772 C715.948331,-6.50178099 660.322469,-11.1950111 612.281259,17.9867794 Z" id="Path" fill="url(#linearGradient-5)"></path>
            </g>
            <g id="emblem-body-color" transform="translate(61.000000, 224.000000)" fill="url(#linearGradient-6)">
                <g id="emblem-body">
                    <path d="M360.747211,314.445274 C359.038359,316.598443 357.232734,318.64893 355.330334,320.596737 C338.708924,337.653543 315.854828,346.181818 286.76736,346.181818 C264.694687,346.181818 243.021058,342.072715 221.746102,333.854416 L221.746102,350.57353 L171.822027,350.57353 L49.0920076,151.711756 L49.0920076,350.57353 L-1.13686838e-13,350.57353 L-1.13686838e-13,79.4363636 L53.6683812,79.4363636 L172.654095,271.613708 L172.654095,79.4363636 L221.746102,79.4363636 L221.746102,273.355324 C241.304332,281.875272 260.380895,286.135198 278.976113,286.135198 C293.866126,286.135198 304.687194,281.784037 311.439642,273.081585 C318.19209,264.379133 321.568264,251.151604 321.568264,233.398601 L321.568264,0 L383.378824,0 L383.378824,188.55992 C385.898463,184.897377 388.610609,181.405971 391.515262,178.085706 C412.596906,154.149661 440.335495,142.181818 474.731861,142.181818 C491.375264,142.181818 505.79933,144.199652 518.004493,148.235381 C530.209655,152.271109 540.750319,157.907128 549.6268,165.143607 C567.102373,179.338238 578.475195,199.238256 583.745606,224.844257 L531.319148,234.44646 C526.880908,220.251828 520.015607,208.771049 510.72304,200.003777 C501.430474,191.236505 489.849613,186.852934 475.98011,186.852934 C457.117587,186.852934 441.861363,194.785109 430.210981,210.649697 C417.728429,227.905915 411.487246,251.77202 411.487246,282.248729 C411.487246,312.725437 417.034964,336.521961 428.130566,353.639017 C439.226168,370.756072 454.343699,379.314471 473.483612,379.314471 C492.623526,379.314471 507.047592,374.652579 516.756244,365.328655 C526.464895,356.00473 531.319148,343.967307 531.319148,329.216023 L584.161689,329.216023 C584.161689,359.553569 574.522529,383.002191 555.243921,399.562594 C535.965312,416.122997 509.544306,424.403074 475.98011,424.403074 C440.196794,424.403074 411.76474,411.878588 390.683096,386.829238 C374.795689,367.782825 364.817104,343.65498 360.747211,314.445274 Z" id="Combined-Shape" fill-rule="nonzero"></path>
                </g>
            </g>
        </g>
    </g>
</svg>