<?xml version="1.0" encoding="UTF-8"?>
<svg width="907px" height="660px" viewBox="0 0 907 660" version="1.1" xmlns="http://www.w3.org/2000/svg" xmlns:xlink="http://www.w3.org/1999/xlink">
    <!-- Generator: Sketch 55.1 (78136) - https://sketchapp.com -->
    <title>emblem-color</title>
    <desc>Created with Sketch.</desc>
    <defs>
        <linearGradient x1="0%" y1="34.8805491%" x2="100%" y2="65.1194509%" id="linearGradient-1">
            <stop stop-color="#81FFEF" offset="0%"></stop>
            <stop stop-color="#F067B4" offset="100%"></stop>
        </linearGradient>
    </defs>
    <g id="emblem-color" stroke="none" stroke-width="1" fill="none" fill-rule="evenodd">
        <g id="emblem-body-color" fill="url(#linearGradient-1)" fill-rule="nonzero">
            <path d="M542.888965,428.679422 C540.418778,471.716966 528.233019,504.446121 506.331429,526.867692 C484.388462,549.382677 454.217335,560.64 415.817143,560.64 C377.416951,560.64 339.931611,551.220607 303.36,532.381538 L303.36,520.42007 L300.355658,520.42007 L109.815902,211.599433 L109.815902,520.42007 L33.6,520.42007 L33.6,99.36 L116.920774,99.36 L301.647453,397.800112 L301.647453,99.36 L377.863355,99.36 L377.863355,479.042696 C387.174047,480.599875 396.396731,481.378462 405.531429,481.378462 C425.18867,481.378462 439.474241,475.634929 448.388571,464.147692 C457.302902,452.660455 461.76,435.200117 461.76,411.766154 L461.76,103.68 L543.36,103.68 L543.36,204.249767 C551.303295,185.624605 561.593925,169.086919 574.231914,154.636625 C606.961407,117.465356 650.025883,98.88 703.426634,98.88 C729.265707,98.88 751.659234,102.013577 770.607888,108.280826 C789.556542,114.548075 805.921043,123.300481 819.701882,134.538307 C846.832908,156.581734 864.489343,187.485291 872.671717,227.249905 L791.279043,242.161561 C784.388624,220.118134 773.730166,202.289158 759.30335,188.6741 C744.876534,175.059042 726.897116,168.251615 705.364555,168.251615 C676.080272,168.251615 652.39481,180.569816 634.307459,205.206588 C614.928154,232.00448 605.238647,269.067138 605.238647,316.395673 C605.238647,363.724208 613.851542,400.678811 631.077591,427.260591 C648.30364,453.842371 671.773779,467.133061 701.488713,467.133061 C731.203647,467.133061 753.597175,459.893417 768.669967,445.413911 C783.74276,430.934405 791.279043,412.240994 791.279043,389.333119 L873.31769,389.333119 C873.31769,436.445542 858.352785,472.859873 828.422525,498.577205 C798.492265,524.294537 757.473352,537.15301 705.364555,537.15301 C649.810547,537.15301 605.66946,517.703218 572.939967,478.803053 C560.642782,464.056651 550.62579,447.348802 542.888965,428.679422 Z" id="Combined-Shape"></path>
        </g>
    </g>
</svg>