<?xml version="1.0" encoding="UTF-8"?>
<svg width="1076px" height="1076px" viewBox="0 0 1076 1076" version="1.1" xmlns="http://www.w3.org/2000/svg" xmlns:xlink="http://www.w3.org/1999/xlink">
    <!-- Generator: Sketch 55.1 (78136) - https://sketchapp.com -->
    <title>emblem</title>
    <desc>Created with Sketch.</desc>
    <defs>
        <linearGradient x1="39.9602628%" y1="0%" x2="60.0397372%" y2="100%" id="linearGradient-1">
            <stop stop-color="#81FFEF" offset="0%"></stop>
            <stop stop-color="#F067B4" offset="100%"></stop>
        </linearGradient>
        <linearGradient x1="41.806848%" y1="0%" x2="58.193152%" y2="100%" id="linearGradient-2">
            <stop stop-color="#81FFEF" offset="0%"></stop>
            <stop stop-color="#F067B4" offset="100%"></stop>
        </linearGradient>
        <linearGradient x1="31.8456469%" y1="8.78757409%" x2="89.3284026%" y2="104.40834%" id="linearGradient-3">
            <stop stop-color="#333333" offset="0%"></stop>
            <stop stop-color="#323232" offset="0%"></stop>
            <stop stop-color="#313131" offset="8.83734027%"></stop>
            <stop stop-color="#000000" offset="100%"></stop>
        </linearGradient>
        <linearGradient x1="0%" y1="34.8889163%" x2="100%" y2="65.1110837%" id="linearGradient-4">
            <stop stop-color="#81FFEF" offset="0%"></stop>
            <stop stop-color="#F067B4" offset="100%"></stop>
        </linearGradient>
    </defs>
    <g id="emblem" stroke="none" stroke-width="1" fill="none" fill-rule="evenodd">
        <path d="M822.38456,734.32359 C805.003028,741.619959 785.002902,733.485494 777.680722,716.151689 C770.368423,698.808023 778.530529,678.851469 795.90218,671.56496 C804.08405,668.084395 812.176986,663.647415 820.062411,658.352617 C827.661273,653.245159 834.795705,647.339045 841.426182,640.752593 C848.027014,634.146421 853.975668,626.997952 859.064633,619.435365 C864.380872,611.576979 868.82754,603.491813 872.295941,595.317908 C875.991617,586.581986 878.847366,577.491105 880.73473,568.094566 C882.523278,559.289623 883.452138,549.755044 883.452138,539.500689 C883.452138,529.246333 882.503515,519.682174 880.73473,510.896952 C878.847366,501.510272 875.991617,492.409531 872.295941,483.683469 C868.82754,475.509564 864.380872,467.424399 859.064633,459.575872 C853.946023,452.003425 848.027014,444.864816 841.426182,438.258644 C828.264044,425.135041 812.819283,414.604606 795.90218,407.446277 C778.530529,400.149908 770.368423,380.173634 777.680722,362.849689 C785.002902,345.506023 805.022791,337.381418 822.38456,344.677787 C847.977606,355.49416 870.853244,370.944714 889.875103,389.915272 C899.420618,399.439991 908.116325,409.970426 915.814002,421.368537 C923.205352,432.30323 929.717251,444.302798 935.201475,457.239063 C940.616529,470.027427 944.835923,483.50599 947.67191,497.546569 C950.498014,511.547709 952,525.598148 952,539.510549 C952,553.422949 950.517777,567.473388 947.67191,581.474528 C944.835923,595.534828 940.616529,608.99367 935.201475,621.772175 C929.717251,634.708439 923.205352,646.717867 915.814002,657.66242 C908.116325,669.060531 899.420618,679.610686 889.875103,689.115685 C880.329589,698.640404 869.7564,707.327027 858.353166,715.017794 C847.384717,722.343742 835.339187,728.841454 822.38456,734.32359 Z" id="Path" fill="url(#linearGradient-1)"></path>
        <path d="M843.282545,848.324463 C825.938938,855.614286 805.982452,847.49697 798.676248,830.178716 C791.379905,812.860461 799.514342,792.91196 816.857948,785.612286 C832.476068,779.012042 847.630771,770.727257 862.115,760.974656 C876.38231,751.369822 889.772087,740.307024 902.057552,728.032539 C914.343017,715.758054 925.395992,702.390095 935.019278,688.145387 C944.780603,673.674104 953.062939,658.532946 959.678948,642.928785 C966.571035,626.635046 971.895394,609.572921 975.474546,591.949282 C978.87622,575.123583 980.651007,557.263518 980.651007,538.49715 C980.651007,519.730782 978.8565,501.860866 975.474546,485.035167 C971.915114,467.43123 966.590755,450.359254 959.678948,434.075366 C953.062939,418.471205 944.780603,403.320195 935.019278,388.848912 C925.395992,374.604205 914.343017,361.236246 902.057552,348.961761 C889.772087,336.687276 876.38231,325.64418 862.115,316.029495 C847.630771,306.276894 832.476068,298.00196 816.857948,291.391864 C799.514342,284.092191 791.379905,264.123987 798.676248,246.825435 C805.982452,229.507181 825.968518,221.380014 843.282545,228.679687 C863.663008,237.289559 882.751821,247.623375 900.312345,259.45456 C918.415166,271.650237 935.167177,285.451644 950.38104,300.651909 C965.594903,315.852175 979.408656,332.608916 991.625102,350.685706 C1003.45701,368.240387 1013.80993,387.302288 1022.4275,407.664536 C1031.04508,427.987379 1037.71039,449.433249 1042.21637,471.696762 C1046.67306,493.753401 1049,516.085871 1049,538.507001 C1049,560.908429 1046.67306,583.270453 1042.21637,605.297538 C1037.71039,627.570902 1031.04508,649.006921 1022.4275,669.329764 C1013.80993,689.682161 1003.45701,708.753913 991.625102,726.298743 C979.428376,744.385384 965.594903,761.142125 950.38104,776.34239 C935.167177,791.522953 918.395446,805.334212 900.292626,817.539739 C882.741961,829.370925 863.663008,839.704741 843.282545,848.324463 Z" id="Path" fill="url(#linearGradient-2)"></path>
        <path d="M639.281259,133.986779 C533.935492,198.004409 428.559203,262.046676 323.198174,326.051988 L118.046335,326.051988 C67.9906897,326.051988 27,359.126326 27,399.529987 L27,676.479838 C27,716.895817 67.9906897,749.957837 118.046335,749.957837 L323.182914,749.957837 C428.543942,813.975467 533.935492,878.005415 639.265998,942.023045 C687.291948,971.180199 742.933073,966.511606 742.933073,915.896166 C742.933073,663.976876 742.933073,412.045267 742.933073,160.125977 C742.948331,109.498219 687.322469,104.804989 639.281259,133.986779 Z" id="Path" fill="url(#linearGradient-3)"></path>
        <g id="emblem-body-color" transform="translate(88.000000, 340.000000)" fill="url(#linearGradient-4)" fill-rule="nonzero">
            <path d="M349.684363,276.043567 C348.093272,303.757137 340.244209,324.83273 326.137008,339.270862 C312.003156,353.769148 292.569401,361.018182 267.83516,361.018182 C243.100918,361.018182 218.95595,354.952664 195.399529,342.821445 L195.399529,335.118985 L193.46438,335.118985 L70.7343606,136.257211 L70.7343606,335.118985 L21.6423529,335.118985 L21.6423529,63.9818182 L75.3107341,63.9818182 L194.296448,256.159163 L194.296448,63.9818182 L243.388455,63.9818182 L243.388455,308.474463 C249.385636,309.477192 255.32613,309.978555 261.20995,309.978555 C273.871525,309.978555 283.073114,306.280068 288.814992,298.882984 C294.556869,291.485899 297.427765,280.2425 297.427765,265.152448 L297.427765,66.7636364 L349.987765,66.7636364 L349.987765,131.524471 C355.104181,119.530996 361.732557,108.881728 369.872909,99.5766149 C390.954553,75.6405701 418.693142,63.6727273 453.089508,63.6727273 C469.732911,63.6727273 484.156977,65.6905612 496.36214,69.7262897 C508.567302,73.7620182 519.107966,79.3980372 527.984447,86.6345159 C545.46002,100.829147 556.832842,120.729165 562.103253,146.335166 L509.676795,155.937369 C505.238555,141.742738 498.373254,130.261958 489.080687,121.494686 C479.788121,112.727414 468.20726,108.343843 454.337757,108.343843 C435.475234,108.343843 420.21901,116.276018 408.568628,132.140606 C396.086076,149.396824 389.844893,173.26293 389.844893,203.739638 C389.844893,234.216346 395.392611,258.012871 406.488213,275.129926 C417.583815,292.246981 432.701346,300.80538 451.841259,300.80538 C470.981173,300.80538 485.405239,296.143488 495.113891,286.819564 C504.822542,277.495639 509.676795,265.458216 509.676795,250.706933 L562.519336,250.706933 C562.519336,281.044478 552.880176,304.4931 533.601568,321.053503 C514.322959,337.613906 487.901953,345.893983 454.337757,345.893983 C418.554441,345.893983 390.122387,333.369497 369.040743,308.320148 C361.11991,298.824359 354.667788,288.065516 349.684363,276.043567 Z" id="Combined-Shape"></path>
        </g>
    </g>
</svg>