<?xml version="1.0" encoding="UTF-8"?>
<svg width="2713px" height="1397px" viewBox="0 0 2713 1397" version="1.1" xmlns="http://www.w3.org/2000/svg" xmlns:xlink="http://www.w3.org/1999/xlink">
    <!-- Generator: Sketch 55.1 (78136) - https://sketchapp.com -->
    <title>logo-with-emblem-and-tagline</title>
    <desc>Created with Sketch.</desc>
    <defs>
        <linearGradient x1="39.9602628%" y1="0%" x2="60.0397372%" y2="100%" id="linearGradient-1">
            <stop stop-color="#81FFEF" offset="0%"></stop>
            <stop stop-color="#F067B4" offset="100%"></stop>
        </linearGradient>
        <linearGradient x1="41.806848%" y1="0%" x2="58.193152%" y2="100%" id="linearGradient-2">
            <stop stop-color="#81FFEF" offset="0%"></stop>
            <stop stop-color="#F067B4" offset="100%"></stop>
        </linearGradient>
        <linearGradient x1="31.8456469%" y1="8.78757409%" x2="89.3284026%" y2="104.40834%" id="linearGradient-3">
            <stop stop-color="#333333" offset="0%"></stop>
            <stop stop-color="#323232" offset="0%"></stop>
            <stop stop-color="#313131" offset="8.83734027%"></stop>
            <stop stop-color="#000000" offset="100%"></stop>
        </linearGradient>
        <linearGradient x1="0%" y1="34.8928194%" x2="100%" y2="65.1071806%" id="linearGradient-4">
            <stop stop-color="#81FFEF" offset="0%"></stop>
            <stop stop-color="#F067B4" offset="100%"></stop>
        </linearGradient>
    </defs>
    <g id="logo-with-emblem-and-tagline" stroke="none" stroke-width="1" fill="none" fill-rule="evenodd">
        <g id="Group-2" transform="translate(161.000000, 1109.000000)" fill="#000000" font-family="Karla-Regular, Karla" font-size="162" font-weight="normal" letter-spacing="-3.375">
            <text id="sound-design-&amp;-audio">
                <tspan x="0" y="149">sound design &amp; audio production</tspan>
            </text>
        </g>
        <g id="logo-with-emblem" transform="translate(83.000000, 0.000000)">
            <g id="Group" stroke-width="1" fill-rule="evenodd" transform="translate(1143.000000, 165.000000)" fill="#000000">
                <path d="M82.9883371,-1.42108547e-14 L192.944693,177.537466 L192.944693,-1.42108547e-14 L238.311302,-1.42108547e-14 L238.311302,250.482208 L192.175768,250.482208 L78.7592465,66.7695253 L78.7592465,250.482208 L33.392638,250.482208 L33.392638,-1.42108547e-14 L82.9883371,-1.42108547e-14 Z M349.976381,140.87212 C364.84235,140.87212 382.014849,143.316452 401.494394,148.205189 L401.494394,129.679541 C401.494394,116.55714 398.867258,106.844137 393.612907,100.540239 C388.358556,94.2363409 379.772307,91.0844392 367.853901,91.0844392 C355.935495,91.0844392 346.772557,93.4644466 340.364812,98.2245329 C333.957067,102.984619 330.753242,109.738694 330.753242,118.486961 L281.157543,118.486961 C281.157543,97.1308983 288.654492,81.6930121 303.648616,72.1728395 C318.642739,62.6526669 339.595752,57.892652 366.508281,57.892652 C404.954752,57.892652 429.81643,71.4008024 441.094061,98.4175084 C444.938708,107.680379 446.861003,118.615548 446.861003,131.223345 L446.861003,250.482208 L407.261336,250.482208 L403.801171,225.395392 C391.75461,245.722247 373.300581,255.885522 348.43853,255.885522 C324.345409,255.885522 305.635074,249.967666 292.306964,238.131775 C280.004093,226.810489 273.85275,212.46612 273.85275,195.098237 C273.85275,177.730355 280.644858,164.350853 294.229278,154.959332 C307.813697,145.56781 326.395879,140.87212 349.976381,140.87212 Z M401.494394,177.151515 C386.372116,173.034684 372.275288,170.976299 359.203488,170.976299 C334.597747,170.976299 322.295061,179.209838 322.295061,195.677164 C322.295061,202.624317 325.114426,208.606498 330.753242,213.623886 C336.392058,218.641274 345.426843,221.149931 357.857868,221.149931 C370.288894,221.149931 380.541132,216.968837 388.614891,208.606523 C396.68865,200.244209 400.981775,189.759311 401.494394,177.151515 Z M596.972361,245.850796 C580.055914,252.540647 566.728004,255.885522 556.988231,255.885522 C547.248459,255.885522 538.726286,254.72768 531.421456,252.411963 C524.116627,250.096245 517.644901,246.622721 512.006086,241.991285 C500.215835,231.441905 494.320798,216.904562 494.320798,198.378821 L494.320798,93.4001452 L468.177328,93.4001452 L468.177328,62.9100152 L494.320798,62.9100152 L494.320798,13.5082855 L539.687406,13.5082855 L539.687406,62.9100152 L590.436493,62.9100152 L590.436493,93.4001452 L539.687406,93.4001452 L539.687406,196.835017 C539.687406,212.273135 546.992126,219.992078 561.601785,219.992078 C569.034769,219.992078 578.646242,217.933693 590.436493,213.816861 L596.972361,245.850796 Z M683.647359,140.87212 C698.513328,140.87212 715.685827,143.316452 735.165372,148.205189 L735.165372,129.679541 C735.165372,116.55714 732.538236,106.844137 727.283885,100.540239 C722.029534,94.2363409 713.443285,91.0844392 701.524879,91.0844392 C689.606473,91.0844392 680.443535,93.4644466 674.03579,98.2245329 C667.628045,102.984619 664.42422,109.738694 664.42422,118.486961 L614.828521,118.486961 C614.828521,97.1308983 622.32547,81.6930121 637.319594,72.1728395 C652.313718,62.6526669 673.26673,57.892652 700.179259,57.892652 C738.62573,57.892652 763.487408,71.4008024 774.765039,98.4175084 C778.609686,107.680379 780.531981,118.615548 780.531981,131.223345 L780.531981,250.482208 L740.932314,250.482208 L737.472149,225.395392 C725.425588,245.722247 706.971559,255.885522 682.109508,255.885522 C658.016387,255.885522 639.306052,249.967666 625.977942,238.131775 C613.675071,226.810489 607.523728,212.46612 607.523728,195.098237 C607.523728,177.730355 614.315836,164.350853 627.900256,154.959332 C641.484675,145.56781 660.066857,140.87212 683.647359,140.87212 Z M735.165372,177.151515 C720.043094,173.034684 705.946266,170.976299 692.874466,170.976299 C668.268725,170.976299 655.966039,179.209838 655.966039,195.677164 C655.966039,202.624317 658.785405,208.606498 664.42422,213.623886 C670.063036,218.641274 679.097821,221.149931 691.528846,221.149931 C703.959872,221.149931 714.21211,216.968837 722.285869,208.606523 C730.359628,200.244209 734.652753,189.759311 735.165372,177.151515 Z M869.898219,95.3299003 C882.20109,70.37161 901.936648,57.892652 929.105488,57.892652 C952.17337,57.892652 969.538099,65.482946 981.200195,80.6637618 C992.862291,95.8445776 998.693252,115.91383 998.693252,140.87212 L998.693252,250.482208 L953.326643,250.482208 L953.326643,140.87212 C953.326643,126.977814 949.994666,116.492916 943.330611,109.417112 C936.666556,102.341308 927.311388,98.8034594 915.264827,98.8034594 C903.218267,98.8034594 892.901952,104.20672 884.315573,115.013402 C875.729195,125.820084 871.179764,142.029865 870.667145,163.64323 L870.667145,250.482208 L825.300536,250.482208 L825.300536,62.9100152 L864.900203,62.9100152 L869.898219,95.3299003 Z" id="Natan" fill-rule="nonzero"></path>
                <path d="M0,542.373539 L0,496.83132 C19.7352227,508.152606 38.8294049,513.813164 57.2831196,513.813164 C68.3040881,513.813164 76.3133928,510.596938 81.3112738,504.164389 C86.3091549,497.73184 88.8080579,487.954512 88.8080579,474.832112 L88.8080579,302.312009 L134.557664,302.312009 L134.557664,474.832112 C134.557664,503.649932 127.637624,525.134323 113.797338,539.285931 C101.494862,551.893727 84.5792104,558.197531 63.0498766,558.197531 C41.5205428,558.197531 20.5041274,552.92292 0,542.373539 Z M240.452409,443.184129 C255.317901,443.184129 272.48985,445.628461 291.968771,450.517198 L291.968771,431.991549 C291.968771,418.869149 289.34172,409.156146 284.087537,402.852248 C278.833354,396.54835 270.24738,393.396448 258.329356,393.396448 C246.411332,393.396448 237.248687,395.776456 230.841147,400.536542 C224.433607,405.296628 221.229886,412.050703 221.229886,420.79897 L171.635775,420.79897 C171.635775,399.442907 179.132484,384.005021 194.126128,374.484848 C209.119771,364.964676 230.072112,360.204661 256.983779,360.204661 C295.429018,360.204661 320.2899,373.712811 331.56717,400.729517 C335.411694,409.992388 337.333927,420.927557 337.333927,433.535354 L337.333927,552.794217 L297.735528,552.794217 L294.275474,527.707401 C282.229299,548.034256 263.775862,558.197531 238.914607,558.197531 C214.822257,558.197531 196.112522,552.279675 182.784839,540.443784 C170.482362,529.122498 164.331216,514.778129 164.331216,497.410246 C164.331216,480.042364 171.123107,466.662862 184.707091,457.271341 C198.291076,447.879819 216.872662,443.184129 240.452409,443.184129 Z M291.968771,479.463524 C276.846978,475.346693 262.750601,473.288308 249.67922,473.288308 C225.074267,473.288308 212.771975,481.521847 212.771975,497.989173 C212.771975,504.936326 215.59125,510.918507 221.229886,515.935895 C226.868521,520.953283 235.903016,523.46194 248.333643,523.46194 C260.764271,523.46194 271.016181,519.280845 279.089681,510.918532 C287.163181,502.556218 291.456168,492.07132 291.968771,479.463524 Z M548.18365,400.729517 C560.229824,373.712811 581.374389,360.204661 611.617977,360.204661 C633.916215,360.204661 651.216313,367.794955 663.51879,382.975771 C675.308663,397.384681 681.203511,417.453933 681.203511,443.184129 L681.203511,552.794217 L635.453906,552.794217 L635.453906,443.184129 C635.453906,429.289823 632.122035,418.804925 625.458193,411.729121 C618.794352,404.653317 609.439484,401.115468 597.393309,401.115468 C585.347134,401.115468 575.479671,406.39008 567.790623,416.93946 C560.101576,427.48884 556.000812,443.441323 555.488208,464.797386 L555.488208,552.794217 L510.123053,552.794217 L510.123053,443.184129 C510.123053,429.289823 506.791183,418.804925 500.127341,411.729121 C493.4635,404.653317 484.108632,401.115468 472.062457,401.115468 C460.016282,401.115468 449.700298,406.518729 441.114194,417.325411 C432.528091,428.132093 427.978806,444.341874 427.466203,465.955239 L427.466203,552.794217 L382.101048,552.794217 L382.101048,365.222024 L421.699446,365.222024 L426.697302,397.641909 C438.999778,372.683619 458.734705,360.204661 485.902674,360.204661 C501.537071,360.204661 514.544182,363.806834 524.924396,371.011289 C535.304611,378.215744 543.057618,388.121721 548.18365,400.729517 Z M855.91489,387.607183 C862.32243,395.840846 867.128013,405.360876 870.331783,416.167558 C873.535553,426.97424 875.137414,436.880217 875.137414,445.885786 C875.137414,454.891355 874.624818,462.996245 873.599612,470.2007 L752.882165,470.2007 C753.394768,485.381516 757.111085,497.731824 764.031229,507.251997 C770.951372,516.77217 781.459579,521.532185 795.556167,521.532185 C814.266183,521.532185 825.415135,513.298645 829.003357,496.83132 L874.752963,496.83132 C871.677344,515.614363 863.091369,530.409004 848.994782,541.215686 C834.385591,552.536973 816.572897,558.197531 795.556167,558.197531 C770.951214,558.197531 750.319245,549.192097 733.659642,531.18096 C716.487435,512.397917 707.90146,488.340544 707.90146,459.00812 C707.90146,428.903791 716.487435,404.717769 733.659642,386.44933 C750.062944,368.952796 770.694912,360.204661 795.556167,360.204661 C821.442628,360.204661 841.562001,369.338744 855.91489,387.607183 Z M795.940617,396.484056 C783.125538,396.484056 773.129925,400.66515 765.953481,409.027464 C758.777036,417.389778 754.548123,428.131974 753.266615,441.254374 L832.847862,441.254374 C832.847862,420.927519 826.440418,407.290719 813.625339,400.343566 C808.755609,397.770547 802.86076,396.484056 795.940617,396.484056 Z M933.360301,495.673467 C933.872904,513.427302 946.81594,522.304087 972.189798,522.304087 C981.929259,522.304087 989.938563,520.181377 996.217952,515.935895 C1002.49734,511.690413 1005.63699,506.737424 1005.63699,501.076781 C1005.63699,495.416138 1003.71476,491.04207 999.870232,487.954446 C996.025708,484.866823 990.002711,482.036544 981.80106,479.463524 L941.04931,464.797386 C910.805722,454.248005 895.684155,437.009032 895.684155,413.07995 C895.684155,397.127228 902.796418,384.326648 917.021156,374.677824 C931.245895,365.029 950.340077,360.204661 974.304276,360.204661 C998.268475,360.204661 1016.72191,365.479272 1029.66514,376.028653 C1042.60837,386.578033 1049.33619,399.828885 1049.84879,415.781607 L1007.17479,415.781607 C1006.66219,409.60636 1003.71476,404.717696 998.33243,401.115468 C992.950096,397.513241 985.261164,395.712154 975.265402,395.712154 C965.26964,395.712154 957.516633,397.706215 952.006149,401.694395 C946.495664,405.682575 943.740464,410.249617 943.740464,415.395656 C943.740464,424.401225 951.301247,431.090975 966.423041,435.465109 L1010.63484,452.061002 C1025.24404,456.949739 1036.45706,463.189218 1044.27426,470.779626 C1052.09146,478.370034 1056,488.211687 1056,500.304879 C1056,515.742997 1048.69551,529.122498 1034.08632,540.443784 C1018.96453,552.279675 998.973305,558.197531 974.11205,558.197531 C949.250796,558.197531 929.259572,552.729946 914.137778,541.794613 C899.015984,530.859279 891.327051,515.485718 891.07075,495.673467 L933.360301,495.673467 Z" id="James" fill-rule="nonzero"></path>
                <path d="M123.474077,615.270698 C138.854478,615.270698 152.183959,617.134815 163.462919,620.863106 C174.74188,624.591397 184.482654,629.798069 192.685534,636.48328 C208.834955,649.596579 219.344738,667.980633 224.215198,691.635995 L175.767178,700.506711 C171.665738,687.393413 165.321418,676.787227 156.734027,668.687837 C148.146637,660.588447 137.444602,656.538813 124.627602,656.538813 C107.196481,656.538813 93.0979917,663.866723 82.3317112,678.522762 C70.7964107,694.464419 65.028847,716.512428 65.028847,744.667451 C65.028847,772.822474 70.1555703,794.806203 80.4091707,810.619298 C90.6627712,826.432393 104.633092,834.338822 122.320553,834.338822 C140.008014,834.338822 153.337494,830.032068 162.309395,821.418431 C171.281295,812.804794 175.767178,801.684369 175.767178,788.056824 L224.599706,788.056824 C224.599706,816.083285 215.692024,837.745615 197.876393,853.044463 C180.060763,868.343311 155.644743,875.99262 124.627602,875.99262 C91.5597401,875.99262 65.2852831,864.422236 45.8034423,841.281122 C26.0652614,817.62576 16.196319,785.485805 16.196319,744.860292 C16.196319,703.720533 26.3215976,671.580578 46.5724585,648.439463 C66.0542993,626.326842 91.6879159,615.270698 123.474077,615.270698 Z M301.672217,720.17656 C312.951178,693.178593 329.869365,679.679812 352.427286,679.679812 C356.785066,679.679812 362.296294,680.579731 368.961134,682.379595 L368.192118,727.890226 C361.014597,726.347485 353.965353,725.576127 347.044172,725.576127 C316.796051,725.576127 301.672217,746.531377 301.672217,788.442507 L301.672217,870.593054 L256.300262,870.593054 L256.300262,682.765278 L301.672217,682.765278 L301.672217,720.17656 Z M398.73915,682.765278 L444.111105,682.765278 L444.111105,870.593054 L398.73915,870.593054 L398.73915,682.765278 Z M393.356036,622.598681 C393.356036,614.370729 395.79123,607.878458 400.66169,603.121673 C405.53215,598.364889 412.453227,595.986532 421.425127,595.986532 C430.140687,595.986532 436.99768,598.364889 441.99631,603.121673 C446.99494,607.878458 449.494218,614.370729 449.494218,622.598681 C449.494218,630.826633 446.99494,637.318904 441.99631,642.075688 C436.99768,646.832473 430.140687,649.21083 421.425127,649.21083 C412.453227,649.21083 405.53215,646.832473 400.66169,642.075688 C395.79123,637.318904 393.356036,630.826633 393.356036,622.598681 Z M525.028697,813.511923 C525.541377,831.253444 538.486353,840.124072 563.864014,840.124072 C573.604935,840.124072 581.61544,838.002835 587.89577,833.760297 C594.176101,829.517759 597.316219,824.568206 597.316219,818.911489 C597.316219,813.254772 595.393697,808.883739 591.548597,805.798257 C587.703497,802.712775 581.679597,799.884459 573.476717,797.313224 L532.718859,782.657258 C502.470737,772.115194 487.346904,754.888178 487.346904,730.975693 C487.346904,715.034036 494.460232,702.242334 508.687103,692.600203 C522.913974,682.958072 542.011018,678.137079 565.978809,678.137079 C589.9466,678.137079 608.402804,683.408031 621.347975,693.950095 C634.293145,704.492158 641.021969,717.733819 641.534649,733.675476 L598.854251,733.675476 C598.341571,727.504512 595.393705,722.619239 590.010565,719.01951 C584.627425,715.419781 576.93734,713.619944 566.940079,713.619944 C556.942819,713.619944 549.18865,715.612621 543.677339,719.598035 C538.166029,723.583449 535.410415,728.147323 535.410415,733.289793 C535.410415,742.289115 542.972332,748.974226 558.096393,753.345325 L602.314824,769.929708 C616.926204,774.815054 628.140912,781.050206 635.959282,788.635349 C643.777652,796.220492 647.686779,806.055318 647.686779,818.140123 C647.686779,833.567533 640.381198,846.937754 625.769818,858.251188 C610.645757,870.078869 590.651536,875.99262 565.786555,875.99262 C540.921574,875.99262 520.927353,870.528828 505.803292,859.601079 C490.679232,848.673331 482.989147,833.310432 482.732807,813.511923 L525.028697,813.511923 Z M722.452242,708.606061 C734.243882,688.293304 752.187414,678.137079 776.283375,678.137079 C799.353976,678.137079 819.091861,686.879146 835.497621,704.363544 C852.928742,722.876436 861.644172,747.045682 861.644172,776.872008 C861.644172,806.955457 852.800574,831.253263 835.113113,849.766155 C818.707353,867.250552 799.097636,875.99262 776.283375,875.99262 C753.469114,875.99262 736.807263,869.17895 726.297323,855.551404 L726.297323,962 L680.925368,962 L680.925368,683.150962 L718.222653,683.150962 L722.452242,708.606061 Z M768.208705,834.724505 C773.591845,834.724505 779.167157,833.567467 784.934807,831.253355 C790.702457,828.939244 795.893265,825.339569 800.507385,820.454223 C810.760985,809.655036 815.887709,795.192056 815.887709,777.064849 C815.887709,758.937643 811.46591,744.731783 802.622179,734.446843 C793.778449,724.161903 783.01233,719.01951 770.323499,719.01951 C757.634669,719.01951 747.253054,722.683465 739.178344,730.011485 C731.103633,737.339504 726.810003,747.81713 726.297323,761.444675 L726.297323,794.999124 C726.297323,807.083928 730.526869,816.854474 738.98609,824.311056 C746.93263,831.25339 756.673404,834.724505 768.208705,834.724505 Z" id="Crisp" fill-rule="nonzero"></path>
            </g>
            <g id="emblem" transform="translate(114.000000, 50.000000)">
                <path d="M740.146104,660.891231 C724.502725,667.457963 706.502612,660.136945 699.912649,644.53652 C693.33158,628.927221 700.677476,610.966322 716.311962,604.408464 C723.675645,601.275956 730.959287,597.282673 738.05617,592.517356 C744.895146,587.920643 751.316135,582.60514 757.283564,576.677334 C763.224313,570.731779 768.578101,564.298157 773.158169,557.491828 C777.942785,550.419281 781.944786,543.142632 785.066347,535.786118 C788.392455,527.923787 790.962629,519.741995 792.661257,511.285109 C794.270951,503.360661 795.106924,494.77954 795.106924,485.55062 C795.106924,476.321699 794.253164,467.713956 792.661257,459.807257 C790.962629,451.359245 788.392455,443.168578 785.066347,435.315122 C781.944786,427.958608 777.942785,420.681959 773.158169,413.618285 C768.551421,406.803083 763.224313,400.378334 757.283564,394.43278 C745.437639,382.621537 731.537354,373.144145 716.311962,366.701649 C700.677476,360.134917 693.33158,342.156271 699.912649,326.56472 C706.502612,310.955421 724.520512,303.643276 740.146104,310.210008 C763.179846,319.944744 783.76792,333.850242 800.887593,350.923745 C809.478556,359.495992 817.304692,368.973383 824.232601,379.231683 C830.884817,389.072907 836.745526,399.872518 841.681328,411.515156 C846.554876,423.024685 850.352331,435.155391 852.904719,447.791912 C855.448213,460.392938 856.8,473.038334 856.8,485.559494 C856.8,498.080654 855.466,510.726049 852.904719,523.327075 C850.352331,535.981345 846.554876,548.094303 841.681328,559.594957 C836.745526,571.237595 830.884817,582.046081 824.232601,591.896178 C817.304692,602.154478 809.478556,611.649617 800.887593,620.204116 C792.29663,628.776364 782.78076,636.594324 772.517849,643.516014 C762.646246,650.109368 751.805268,655.957309 740.146104,660.891231 Z" id="Path" fill="url(#linearGradient-1)" fill-rule="evenodd"></path>
                <path d="M758.95429,763.492017 C743.345044,770.052857 725.384207,762.747273 718.808624,747.160844 C712.241914,731.574415 719.562908,713.620764 735.172153,707.051058 C749.228461,701.110837 762.867694,693.654531 775.9035,684.877191 C788.744079,676.23284 800.794878,666.276321 811.851797,655.229285 C822.908716,644.182248 832.856393,632.151085 841.51735,619.330849 C850.302543,606.306694 857.756645,592.679651 863.711053,578.635906 C869.913931,563.971542 874.705855,548.615629 877.927092,532.754354 C880.988598,517.611225 882.585906,501.537166 882.585906,484.647435 C882.585906,467.757704 880.97085,451.674779 877.927092,436.53165 C874.723602,420.688107 869.931679,405.323328 863.711053,390.667829 C857.756645,376.624085 850.302543,362.988176 841.51735,349.964021 C832.856393,337.143784 822.908716,325.112622 811.851797,314.065585 C800.794878,303.018548 788.744079,293.079762 775.9035,284.426545 C762.867694,275.649205 749.228461,268.201764 735.172153,262.252678 C719.562908,255.682972 712.241914,237.711589 718.808624,222.142892 C725.384207,206.556463 743.371666,199.242012 758.95429,205.811719 C777.296707,213.560603 794.476639,222.861038 810.281111,233.509104 C826.573649,244.485213 841.650459,256.90648 855.342936,270.586718 C869.035412,284.266957 881.46779,299.348024 892.462592,315.617135 C903.11131,331.416348 912.428938,348.572059 920.184754,366.898082 C927.94057,385.188641 933.939348,404.489924 937.994735,424.527085 C942.005752,444.378061 944.1,464.477284 944.1,484.656301 C944.1,504.817586 942.005752,524.943407 937.994735,544.767784 C933.939348,564.813812 927.94057,584.106229 920.184754,602.396788 C912.428938,620.713945 903.11131,637.878522 892.462592,653.668869 C881.485538,669.946846 869.035412,685.027913 855.342936,698.708151 C841.650459,712.370658 826.555901,724.800791 810.263363,735.785765 C794.467765,746.433832 777.296707,755.734267 758.95429,763.492017 Z" id="Path" fill="url(#linearGradient-2)" fill-rule="evenodd"></path>
                <path d="M575.353133,120.588101 C480.541942,178.203968 385.703282,235.842008 290.878357,293.446789 L106.241701,293.446789 C61.1916207,293.446789 24.3,323.213693 24.3,359.576988 L24.3,608.831854 C24.3,645.206235 61.1916207,674.962053 106.241701,674.962053 L290.864622,674.962053 C385.689548,732.57792 480.541942,790.204874 575.339398,847.820741 C618.562753,874.06218 668.639766,869.860445 668.639766,824.306549 C668.639766,597.579188 668.639766,370.840741 668.639766,144.113379 C668.653498,98.5483971 618.590222,94.32449 575.353133,120.588101 Z" id="Path" fill="url(#linearGradient-3)" fill-rule="evenodd"></path>
                <g id="emblem-body-color" transform="translate(79.200000, 306.000000)" fill="url(#linearGradient-4)" fill-rule="nonzero">
                    <path d="M314.69833,248.393233 C313.266428,273.330831 306.202667,292.295354 293.506896,305.287268 C280.78714,318.333311 263.297738,324.856234 241.038166,324.856234 C218.778593,324.856234 197.049337,319.398278 175.849744,308.482202 L175.849744,301.55127 L174.108206,301.55127 L63.657365,122.608795 L63.657365,301.55127 L19.4770286,301.55127 L19.4770286,57.5729798 L67.775871,57.5729798 L174.857025,230.500581 L174.857025,57.5729798 L219.037362,57.5729798 L219.037362,277.575638 C224.434523,278.477928 229.780668,278.92907 235.07581,278.92907 C246.470591,278.92907 254.751558,275.601048 259.918959,268.944904 C265.08636,262.28876 267.670021,252.171574 267.670021,238.59304 L267.670021,60.0761528 L314.971376,60.0761528 L314.971376,118.350118 C319.575894,107.557988 325.541099,97.9754204 332.867006,89.6023683 C351.839425,68.0639147 376.802759,57.2948494 407.757757,57.2948494 C422.735982,57.2948494 435.716916,59.1105639 446.700948,62.7420474 C457.68498,66.3735308 467.171047,71.4450092 475.159434,77.9566347 C490.88657,90.7294386 501.121537,108.63614 505.864642,131.677277 L458.683468,140.317659 C454.689275,127.544856 448.51085,117.214066 440.148007,109.324982 C431.785159,101.435897 421.362973,97.4914136 408.881119,97.4914136 C391.905797,97.4914136 378.175963,104.62905 367.691205,118.904537 C356.457536,134.432259 350.840786,155.907779 350.840786,183.33174 C350.840786,210.755701 355.833453,232.16861 365.818937,247.571109 C375.80442,262.973607 389.409437,270.674741 406.634396,270.674741 C423.859355,270.674741 436.840289,266.479815 445.577587,258.089836 C454.314885,249.699857 458.683468,238.868181 458.683468,225.594482 L506.239095,225.594482 C506.239095,252.89322 497.564337,273.993075 480.214559,288.894679 C462.864782,303.796284 439.087206,311.246974 408.881119,311.246974 C376.677934,311.246974 351.090517,299.977022 332.118098,277.43678 C324.989747,268.892152 319.183162,259.210985 314.69833,248.393233 Z" id="Combined-Shape"></path>
                </g>
            </g>
        </g>
    </g>
</svg>