<?xml version="1.0" encoding="UTF-8"?>
<svg width="2713px" height="1397px" viewBox="0 0 2713 1397" version="1.1" xmlns="http://www.w3.org/2000/svg" xmlns:xlink="http://www.w3.org/1999/xlink">
    <!-- Generator: Sketch 55.1 (78136) - https://sketchapp.com -->
    <title>logo-with-emblem</title>
    <desc>Created with Sketch.</desc>
    <defs>
        <rect id="path-1" x="61.2929688" y="56.9664062" width="851.611719" height="851.611719" rx="51"></rect>
        <filter x="-0.8%" y="-0.6%" width="101.6%" height="101.6%" filterUnits="objectBoundingBox" id="filter-2">
            <feOffset dx="0" dy="2" in="SourceAlpha" result="shadowOffsetOuter1"></feOffset>
            <feGaussianBlur stdDeviation="2" in="shadowOffsetOuter1" result="shadowBlurOuter1"></feGaussianBlur>
            <feColorMatrix values="0 0 0 0 0   0 0 0 0 0   0 0 0 0 0  0 0 0 0.5 0" type="matrix" in="shadowBlurOuter1"></feColorMatrix>
        </filter>
        <linearGradient x1="24.7697925%" y1="8.78757409%" x2="104.65707%" y2="104.40834%" id="linearGradient-3">
            <stop stop-color="#333333" offset="0%"></stop>
            <stop stop-color="#323232" offset="0%"></stop>
            <stop stop-color="#313131" offset="8.83734027%"></stop>
            <stop stop-color="#000000" offset="100%"></stop>
        </linearGradient>
        <rect id="path-4" x="37.496875" y="35.3335937" width="851.611719" height="851.611719" rx="51"></rect>
        <filter x="-0.8%" y="-0.6%" width="101.6%" height="101.6%" filterUnits="objectBoundingBox" id="filter-5">
            <feOffset dx="0" dy="2" in="SourceAlpha" result="shadowOffsetOuter1"></feOffset>
            <feGaussianBlur stdDeviation="2" in="shadowOffsetOuter1" result="shadowBlurOuter1"></feGaussianBlur>
            <feColorMatrix values="0 0 0 0 0   0 0 0 0 0   0 0 0 0 0  0 0 0 0.5 0" type="matrix" in="shadowBlurOuter1"></feColorMatrix>
        </filter>
        <linearGradient x1="0%" y1="23.5761807%" x2="100%" y2="76.4238193%" id="linearGradient-6">
            <stop stop-color="#81FFEF" offset="0%"></stop>
            <stop stop-color="#F067B4" offset="100%"></stop>
        </linearGradient>
    </defs>
    <g id="logo-with-emblem" stroke="none" stroke-width="1" fill="none" fill-rule="evenodd">
        <rect fill="#FFFFFF" x="0" y="0" width="2713" height="1397"></rect>
        <g id="Group-2" transform="translate(87.000000, 125.000000)">
            <g id="Group-3">
                <g id="Group" transform="translate(1036.000000, 34.000000)" fill="#000000" fill-rule="nonzero">
                    <path d="M81.9883371,0 L191.944693,177.537466 L191.944693,0 L237.311302,0 L237.311302,250.482208 L191.175768,250.482208 L77.7592465,66.7695253 L77.7592465,250.482208 L32.392638,250.482208 L32.392638,0 L81.9883371,0 Z M348.976381,140.87212 C363.84235,140.87212 381.014849,143.316452 400.494394,148.205189 L400.494394,129.679541 C400.494394,116.55714 397.867258,106.844137 392.612907,100.540239 C387.358556,94.2363409 378.772307,91.0844392 366.853901,91.0844392 C354.935495,91.0844392 345.772557,93.4644466 339.364812,98.2245329 C332.957067,102.984619 329.753242,109.738694 329.753242,118.486961 L280.157543,118.486961 C280.157543,97.1308983 287.654492,81.6930121 302.648616,72.1728395 C317.642739,62.6526669 338.595752,57.892652 365.508281,57.892652 C403.954752,57.892652 428.81643,71.4008024 440.094061,98.4175084 C443.938708,107.680379 445.861003,118.615548 445.861003,131.223345 L445.861003,250.482208 L406.261336,250.482208 L402.801171,225.395392 C390.75461,245.722247 372.300581,255.885522 347.43853,255.885522 C323.345409,255.885522 304.635074,249.967666 291.306964,238.131775 C279.004093,226.810489 272.85275,212.46612 272.85275,195.098237 C272.85275,177.730355 279.644858,164.350853 293.229278,154.959332 C306.813697,145.56781 325.395879,140.87212 348.976381,140.87212 Z M400.494394,177.151515 C385.372116,173.034684 371.275288,170.976299 358.203488,170.976299 C333.597747,170.976299 321.295061,179.209838 321.295061,195.677164 C321.295061,202.624317 324.114426,208.606498 329.753242,213.623886 C335.392058,218.641274 344.426843,221.149931 356.857868,221.149931 C369.288894,221.149931 379.541132,216.968837 387.614891,208.606523 C395.68865,200.244209 399.981775,189.759311 400.494394,177.151515 Z M595.972361,245.850796 C579.055914,252.540647 565.728004,255.885522 555.988231,255.885522 C546.248459,255.885522 537.726286,254.72768 530.421456,252.411963 C523.116627,250.096245 516.644901,246.622721 511.006086,241.991285 C499.215835,231.441905 493.320798,216.904562 493.320798,198.378821 L493.320798,93.4001452 L467.177328,93.4001452 L467.177328,62.9100152 L493.320798,62.9100152 L493.320798,13.5082855 L538.687406,13.5082855 L538.687406,62.9100152 L589.436493,62.9100152 L589.436493,93.4001452 L538.687406,93.4001452 L538.687406,196.835017 C538.687406,212.273135 545.992126,219.992078 560.601785,219.992078 C568.034769,219.992078 577.646242,217.933693 589.436493,213.816861 L595.972361,245.850796 Z M682.647359,140.87212 C697.513328,140.87212 714.685827,143.316452 734.165372,148.205189 L734.165372,129.679541 C734.165372,116.55714 731.538236,106.844137 726.283885,100.540239 C721.029534,94.2363409 712.443285,91.0844392 700.524879,91.0844392 C688.606473,91.0844392 679.443535,93.4644466 673.03579,98.2245329 C666.628045,102.984619 663.42422,109.738694 663.42422,118.486961 L613.828521,118.486961 C613.828521,97.1308983 621.32547,81.6930121 636.319594,72.1728395 C651.313718,62.6526669 672.26673,57.892652 699.179259,57.892652 C737.62573,57.892652 762.487408,71.4008024 773.765039,98.4175084 C777.609686,107.680379 779.531981,118.615548 779.531981,131.223345 L779.531981,250.482208 L739.932314,250.482208 L736.472149,225.395392 C724.425588,245.722247 705.971559,255.885522 681.109508,255.885522 C657.016387,255.885522 638.306052,249.967666 624.977942,238.131775 C612.675071,226.810489 606.523728,212.46612 606.523728,195.098237 C606.523728,177.730355 613.315836,164.350853 626.900256,154.959332 C640.484675,145.56781 659.066857,140.87212 682.647359,140.87212 Z M734.165372,177.151515 C719.043094,173.034684 704.946266,170.976299 691.874466,170.976299 C667.268725,170.976299 654.966039,179.209838 654.966039,195.677164 C654.966039,202.624317 657.785405,208.606498 663.42422,213.623886 C669.063036,218.641274 678.097821,221.149931 690.528846,221.149931 C702.959872,221.149931 713.21211,216.968837 721.285869,208.606523 C729.359628,200.244209 733.652753,189.759311 734.165372,177.151515 Z M868.898219,95.3299003 C881.20109,70.37161 900.936648,57.892652 928.105488,57.892652 C951.17337,57.892652 968.538099,65.482946 980.200195,80.6637618 C991.862291,95.8445776 997.693252,115.91383 997.693252,140.87212 L997.693252,250.482208 L952.326643,250.482208 L952.326643,140.87212 C952.326643,126.977814 948.994666,116.492916 942.330611,109.417112 C935.666556,102.341308 926.311388,98.8034594 914.264827,98.8034594 C902.218267,98.8034594 891.901952,104.20672 883.315573,115.013402 C874.729195,125.820084 870.179764,142.029865 869.667145,163.64323 L869.667145,250.482208 L824.300536,250.482208 L824.300536,62.9100152 L863.900203,62.9100152 L868.898219,95.3299003 Z" id="Natan"></path>
                    <path d="M0,542.373539 L0,496.83132 C19.7352227,508.152606 38.8294049,513.813164 57.2831196,513.813164 C68.3040881,513.813164 76.3133928,510.596938 81.3112738,504.164389 C86.3091549,497.73184 88.8080579,487.954512 88.8080579,474.832112 L88.8080579,302.312009 L134.557664,302.312009 L134.557664,474.832112 C134.557664,503.649932 127.637624,525.134323 113.797338,539.285931 C101.494862,551.893727 84.5792104,558.197531 63.0498766,558.197531 C41.5205428,558.197531 20.5041274,552.92292 0,542.373539 Z M240.452409,443.184129 C255.317901,443.184129 272.48985,445.628461 291.968771,450.517198 L291.968771,431.991549 C291.968771,418.869149 289.34172,409.156146 284.087537,402.852248 C278.833354,396.54835 270.24738,393.396448 258.329356,393.396448 C246.411332,393.396448 237.248687,395.776456 230.841147,400.536542 C224.433607,405.296628 221.229886,412.050703 221.229886,420.79897 L171.635775,420.79897 C171.635775,399.442907 179.132484,384.005021 194.126128,374.484848 C209.119771,364.964676 230.072112,360.204661 256.983779,360.204661 C295.429018,360.204661 320.2899,373.712811 331.56717,400.729517 C335.411694,409.992388 337.333927,420.927557 337.333927,433.535354 L337.333927,552.794217 L297.735528,552.794217 L294.275474,527.707401 C282.229299,548.034256 263.775862,558.197531 238.914607,558.197531 C214.822257,558.197531 196.112522,552.279675 182.784839,540.443784 C170.482362,529.122498 164.331216,514.778129 164.331216,497.410246 C164.331216,480.042364 171.123107,466.662862 184.707091,457.271341 C198.291076,447.879819 216.872662,443.184129 240.452409,443.184129 Z M291.968771,479.463524 C276.846978,475.346693 262.750601,473.288308 249.67922,473.288308 C225.074267,473.288308 212.771975,481.521847 212.771975,497.989173 C212.771975,504.936326 215.59125,510.918507 221.229886,515.935895 C226.868521,520.953283 235.903016,523.46194 248.333643,523.46194 C260.764271,523.46194 271.016181,519.280845 279.089681,510.918532 C287.163181,502.556218 291.456168,492.07132 291.968771,479.463524 Z M548.18365,400.729517 C560.229824,373.712811 581.374389,360.204661 611.617977,360.204661 C633.916215,360.204661 651.216313,367.794955 663.51879,382.975771 C675.308663,397.384681 681.203511,417.453933 681.203511,443.184129 L681.203511,552.794217 L635.453906,552.794217 L635.453906,443.184129 C635.453906,429.289823 632.122035,418.804925 625.458193,411.729121 C618.794352,404.653317 609.439484,401.115468 597.393309,401.115468 C585.347134,401.115468 575.479671,406.39008 567.790623,416.93946 C560.101576,427.48884 556.000812,443.441323 555.488208,464.797386 L555.488208,552.794217 L510.123053,552.794217 L510.123053,443.184129 C510.123053,429.289823 506.791183,418.804925 500.127341,411.729121 C493.4635,404.653317 484.108632,401.115468 472.062457,401.115468 C460.016282,401.115468 449.700298,406.518729 441.114194,417.325411 C432.528091,428.132093 427.978806,444.341874 427.466203,465.955239 L427.466203,552.794217 L382.101048,552.794217 L382.101048,365.222024 L421.699446,365.222024 L426.697302,397.641909 C438.999778,372.683619 458.734705,360.204661 485.902674,360.204661 C501.537071,360.204661 514.544182,363.806834 524.924396,371.011289 C535.304611,378.215744 543.057618,388.121721 548.18365,400.729517 Z M855.91489,387.607183 C862.32243,395.840846 867.128013,405.360876 870.331783,416.167558 C873.535553,426.97424 875.137414,436.880217 875.137414,445.885786 C875.137414,454.891355 874.624818,462.996245 873.599612,470.2007 L752.882165,470.2007 C753.394768,485.381516 757.111085,497.731824 764.031229,507.251997 C770.951372,516.77217 781.459579,521.532185 795.556167,521.532185 C814.266183,521.532185 825.415135,513.298645 829.003357,496.83132 L874.752963,496.83132 C871.677344,515.614363 863.091369,530.409004 848.994782,541.215686 C834.385591,552.536973 816.572897,558.197531 795.556167,558.197531 C770.951214,558.197531 750.319245,549.192097 733.659642,531.18096 C716.487435,512.397917 707.90146,488.340544 707.90146,459.00812 C707.90146,428.903791 716.487435,404.717769 733.659642,386.44933 C750.062944,368.952796 770.694912,360.204661 795.556167,360.204661 C821.442628,360.204661 841.562001,369.338744 855.91489,387.607183 Z M795.940617,396.484056 C783.125538,396.484056 773.129925,400.66515 765.953481,409.027464 C758.777036,417.389778 754.548123,428.131974 753.266615,441.254374 L832.847862,441.254374 C832.847862,420.927519 826.440418,407.290719 813.625339,400.343566 C808.755609,397.770547 802.86076,396.484056 795.940617,396.484056 Z M933.360301,495.673467 C933.872904,513.427302 946.81594,522.304087 972.189798,522.304087 C981.929259,522.304087 989.938563,520.181377 996.217952,515.935895 C1002.49734,511.690413 1005.63699,506.737424 1005.63699,501.076781 C1005.63699,495.416138 1003.71476,491.04207 999.870232,487.954446 C996.025708,484.866823 990.002711,482.036544 981.80106,479.463524 L941.04931,464.797386 C910.805722,454.248005 895.684155,437.009032 895.684155,413.07995 C895.684155,397.127228 902.796418,384.326648 917.021156,374.677824 C931.245895,365.029 950.340077,360.204661 974.304276,360.204661 C998.268475,360.204661 1016.72191,365.479272 1029.66514,376.028653 C1042.60837,386.578033 1049.33619,399.828885 1049.84879,415.781607 L1007.17479,415.781607 C1006.66219,409.60636 1003.71476,404.717696 998.33243,401.115468 C992.950096,397.513241 985.261164,395.712154 975.265402,395.712154 C965.26964,395.712154 957.516633,397.706215 952.006149,401.694395 C946.495664,405.682575 943.740464,410.249617 943.740464,415.395656 C943.740464,424.401225 951.301247,431.090975 966.423041,435.465109 L1010.63484,452.061002 C1025.24404,456.949739 1036.45706,463.189218 1044.27426,470.779626 C1052.09146,478.370034 1056,488.211687 1056,500.304879 C1056,515.742997 1048.69551,529.122498 1034.08632,540.443784 C1018.96453,552.279675 998.973305,558.197531 974.11205,558.197531 C949.250796,558.197531 929.259572,552.729946 914.137778,541.794613 C899.015984,530.859279 891.327051,515.485718 891.07075,495.673467 L933.360301,495.673467 Z" id="James"></path>
                    <path d="M123.474077,615.270698 C138.854478,615.270698 152.183959,617.134815 163.462919,620.863106 C174.74188,624.591397 184.482654,629.798069 192.685534,636.48328 C208.834955,649.596579 219.344738,667.980633 224.215198,691.635995 L175.767178,700.506711 C171.665738,687.393413 165.321418,676.787227 156.734027,668.687837 C148.146637,660.588447 137.444602,656.538813 124.627602,656.538813 C107.196481,656.538813 93.0979917,663.866723 82.3317112,678.522762 C70.7964107,694.464419 65.028847,716.512428 65.028847,744.667451 C65.028847,772.822474 70.1555703,794.806203 80.4091707,810.619298 C90.6627712,826.432393 104.633092,834.338822 122.320553,834.338822 C140.008014,834.338822 153.337494,830.032068 162.309395,821.418431 C171.281295,812.804794 175.767178,801.684369 175.767178,788.056824 L224.599706,788.056824 C224.599706,816.083285 215.692024,837.745615 197.876393,853.044463 C180.060763,868.343311 155.644743,875.99262 124.627602,875.99262 C91.5597401,875.99262 65.2852831,864.422236 45.8034423,841.281122 C26.0652614,817.62576 16.196319,785.485805 16.196319,744.860292 C16.196319,703.720533 26.3215976,671.580578 46.5724585,648.439463 C66.0542993,626.326842 91.6879159,615.270698 123.474077,615.270698 Z M301.672217,720.17656 C312.951178,693.178593 329.869365,679.679812 352.427286,679.679812 C356.785066,679.679812 362.296294,680.579731 368.961134,682.379595 L368.192118,727.890226 C361.014597,726.347485 353.965353,725.576127 347.044172,725.576127 C316.796051,725.576127 301.672217,746.531377 301.672217,788.442507 L301.672217,870.593054 L256.300262,870.593054 L256.300262,682.765278 L301.672217,682.765278 L301.672217,720.17656 Z M398.73915,682.765278 L444.111105,682.765278 L444.111105,870.593054 L398.73915,870.593054 L398.73915,682.765278 Z M393.356036,622.598681 C393.356036,614.370729 395.79123,607.878458 400.66169,603.121673 C405.53215,598.364889 412.453227,595.986532 421.425127,595.986532 C430.140687,595.986532 436.99768,598.364889 441.99631,603.121673 C446.99494,607.878458 449.494218,614.370729 449.494218,622.598681 C449.494218,630.826633 446.99494,637.318904 441.99631,642.075688 C436.99768,646.832473 430.140687,649.21083 421.425127,649.21083 C412.453227,649.21083 405.53215,646.832473 400.66169,642.075688 C395.79123,637.318904 393.356036,630.826633 393.356036,622.598681 Z M525.028697,813.511923 C525.541377,831.253444 538.486353,840.124072 563.864014,840.124072 C573.604935,840.124072 581.61544,838.002835 587.89577,833.760297 C594.176101,829.517759 597.316219,824.568206 597.316219,818.911489 C597.316219,813.254772 595.393697,808.883739 591.548597,805.798257 C587.703497,802.712775 581.679597,799.884459 573.476717,797.313224 L532.718859,782.657258 C502.470737,772.115194 487.346904,754.888178 487.346904,730.975693 C487.346904,715.034036 494.460232,702.242334 508.687103,692.600203 C522.913974,682.958072 542.011018,678.137079 565.978809,678.137079 C589.9466,678.137079 608.402804,683.408031 621.347975,693.950095 C634.293145,704.492158 641.021969,717.733819 641.534649,733.675476 L598.854251,733.675476 C598.341571,727.504512 595.393705,722.619239 590.010565,719.01951 C584.627425,715.419781 576.93734,713.619944 566.940079,713.619944 C556.942819,713.619944 549.18865,715.612621 543.677339,719.598035 C538.166029,723.583449 535.410415,728.147323 535.410415,733.289793 C535.410415,742.289115 542.972332,748.974226 558.096393,753.345325 L602.314824,769.929708 C616.926204,774.815054 628.140912,781.050206 635.959282,788.635349 C643.777652,796.220492 647.686779,806.055318 647.686779,818.140123 C647.686779,833.567533 640.381198,846.937754 625.769818,858.251188 C610.645757,870.078869 590.651536,875.99262 565.786555,875.99262 C540.921574,875.99262 520.927353,870.528828 505.803292,859.601079 C490.679232,848.673331 482.989147,833.310432 482.732807,813.511923 L525.028697,813.511923 Z M722.452242,708.606061 C734.243882,688.293304 752.187414,678.137079 776.283375,678.137079 C799.353976,678.137079 819.091861,686.879146 835.497621,704.363544 C852.928742,722.876436 861.644172,747.045682 861.644172,776.872008 C861.644172,806.955457 852.800574,831.253263 835.113113,849.766155 C818.707353,867.250552 799.097636,875.99262 776.283375,875.99262 C753.469114,875.99262 736.807263,869.17895 726.297323,855.551404 L726.297323,962 L680.925368,962 L680.925368,683.150962 L718.222653,683.150962 L722.452242,708.606061 Z M768.208705,834.724505 C773.591845,834.724505 779.167157,833.567467 784.934807,831.253355 C790.702457,828.939244 795.893265,825.339569 800.507385,820.454223 C810.760985,809.655036 815.887709,795.192056 815.887709,777.064849 C815.887709,758.937643 811.46591,744.731783 802.622179,734.446843 C793.778449,724.161903 783.01233,719.01951 770.323499,719.01951 C757.634669,719.01951 747.253054,722.683465 739.178344,730.011485 C731.103633,737.339504 726.810003,747.81713 726.297323,761.444675 L726.297323,794.999124 C726.297323,807.083928 730.526869,816.854474 738.98609,824.311056 C746.93263,831.25339 756.673404,834.724505 768.208705,834.724505 Z" id="Crisp"></path>
                </g>
                <g id="emblem">
                    <g id="Rectangle">
                        <use fill="black" fill-opacity="1" filter="url(#filter-2)" xlink:href="#path-1"></use>
                        <use fill="#000000" fill-rule="evenodd" xlink:href="#path-1"></use>
                    </g>
                    <g id="Rectangle">
                        <use fill="black" fill-opacity="1" filter="url(#filter-5)" xlink:href="#path-4"></use>
                        <use fill="url(#linearGradient-3)" fill-rule="evenodd" xlink:href="#path-4"></use>
                    </g>
                    <g id="emblem-body-color" transform="translate(136.286719, 307.185937)" fill="url(#linearGradient-6)" fill-rule="evenodd" stroke-width="1">
                        <g id="emblem-body">
                            <path d="M433.478547,378.0742 C431.425169,380.66307 429.255506,383.128479 426.969558,385.470429 C406.997055,405.97873 379.535275,416.232727 344.583395,416.232727 C318.060583,416.232727 292.017269,411.292135 266.453005,401.410839 L266.453005,421.513115 L206.463585,421.513115 L58.9895958,182.411076 L58.9895958,421.513115 L-1.13686838e-13,421.513115 L-1.13686838e-13,95.5105455 L64.4886259,95.5105455 L207.463409,326.575541 L207.463409,95.5105455 L266.453005,95.5105455 L266.453005,328.669577 C289.954428,338.913562 312.877075,344.035497 335.221331,344.035497 C353.113365,344.035497 366.116101,338.803866 374.229931,328.340447 C382.34376,317.877028 386.400614,301.97287 386.400614,280.627495 L386.400614,0 L460.672988,0 L460.672988,226.715575 C463.700619,222.311905 466.959569,218.114003 470.449839,214.121872 C495.781817,185.342298 529.112866,170.952727 570.443988,170.952727 C590.442918,170.952727 607.775064,173.378876 622.440945,178.231246 C637.106827,183.083616 649.772626,189.8601 660.438722,198.560901 C681.437598,215.627858 695.103329,239.554703 701.436323,270.342154 L638.440009,281.88739 C633.106961,264.820434 624.857526,251.016485 613.691457,240.475129 C602.525388,229.933774 588.609675,224.663175 571.9439,224.663175 C549.278446,224.663175 530.946369,234.200449 516.947118,253.275283 C501.947921,274.023347 494.448435,302.718829 494.448435,339.362589 C494.448435,376.006349 501.114645,404.61817 514.447264,425.198912 C527.779884,445.779654 545.945306,456.06987 568.944076,456.06987 C591.942845,456.06987 609.274991,450.46463 620.941033,439.253982 C632.607076,428.043334 638.440009,413.570103 638.440009,395.833854 L701.936294,395.833854 C701.936294,432.310291 690.353754,460.503811 667.188327,480.41526 C644.0229,500.326709 612.275075,510.282285 571.9439,510.282285 C528.946201,510.282285 494.781875,495.223431 469.449897,465.105273 C450.359381,442.204762 438.368984,413.194576 433.478547,378.0742 Z" id="Combined-Shape" fill-rule="nonzero"></path>
                        </g>
                    </g>
                </g>
            </g>
            <text id="sound-design-&amp;-audio" font-family="Karla-Regular, Karla" font-size="162" font-weight="normal" letter-spacing="-3.375" fill="#000000">
                <tspan x="74" y="1133">sound design &amp; audio production</tspan>
            </text>
        </g>
    </g>
</svg>