<svg height='300px' width='300px'  fill="#000000" xmlns="http://www.w3.org/2000/svg" xmlns:xlink="http://www.w3.org/1999/xlink" version="1.1" x="0px" y="0px" viewBox="0 0 100 100" enable-background="new 0 0 100 100" xml:space="preserve"><g><path d="M79,8.8h-1.8c-3,0-5.5,2.5-5.5,5.5v5.5L27.8,31.9v-0.7c0-2.9-2.4-5.3-5.3-5.3h-1.7c-2.9,0-5.3,2.4-5.3,5.3v26.2   c0,2.9,2.4,5.3,5.3,5.3h1.7c2.9,0,5.3-2.4,5.3-5.3v-1.4l7.3,2.1l7.2,27.3c1.3,4.9,6.9,7.2,11.3,4.8c2.5-1.4,4-4,4-6.7   c0-0.9-0.2-1.9-0.5-2.8l-7.1-18.2l21.8,6.3v5.6c0,3,2.5,5.5,5.5,5.5H79c3,0,5.5-2.5,5.5-5.5V14.3C84.5,11.3,82,8.8,79,8.8z"></path></g></svg>