<?xml version="1.0" encoding="UTF-8"?>
<svg width="1280px" height="1280px" viewBox="0 0 1280 1280" version="1.1" xmlns="http://www.w3.org/2000/svg" xmlns:xlink="http://www.w3.org/1999/xlink">
    <!-- Generator: Sketch 55.1 (78136) - https://sketchapp.com -->
    <title>favicon</title>
    <desc>Created with Sketch.</desc>
    <g id="favicon" stroke="none" stroke-width="1" fill="none" fill-rule="evenodd">
        <rect fill="#000000" x="0" y="0" width="1280" height="1280"></rect>
        <g id="Group" transform="translate(200.000000, 268.000000)" fill="#FFFFFF" fill-rule="nonzero">
            <path d="M68.3236143,0 L159.953911,148.009405 L159.953911,0 L197.759418,0 L197.759418,208.821965 L159.31314,208.821965 L64.7993721,55.6644068 L64.7993721,208.821965 L26.993865,208.821965 L26.993865,0 L68.3236143,0 Z M290.813651,117.442245 C303.201958,117.442245 317.512374,119.480036 333.745329,123.555677 L333.745329,108.111218 C333.745329,97.1713375 331.556049,89.0738024 327.177423,83.8183697 C322.798797,78.562937 315.643589,75.9352601 305.711584,75.9352601 C295.779579,75.9352601 288.143797,77.9194243 282.80401,81.8878123 C277.464222,85.8562002 274.794368,91.4869365 274.794368,98.78019 L233.464619,98.78019 C233.464619,80.9760711 239.712077,68.1058167 252.20718,60.1690408 C264.702283,52.2322649 282.163126,48.2639365 304.590234,48.2639365 C336.62896,48.2639365 357.347025,59.5254091 366.745051,82.048692 C369.948923,89.7709605 371.550836,98.8873907 371.550836,109.398256 L371.550836,208.821965 L338.551113,208.821965 L335.667643,187.907593 C325.628842,204.853682 310.250484,213.326599 289.532108,213.326599 C269.454507,213.326599 253.862561,208.393002 242.755803,198.525659 C232.503411,189.087331 227.377292,177.128719 227.377292,162.649466 C227.377292,148.170213 233.037382,137.015992 244.357731,129.18647 C255.678081,121.356948 271.163233,117.442245 290.813651,117.442245 Z M333.745329,147.687646 C321.14343,144.255526 309.396073,142.539492 298.502907,142.539492 C277.998122,142.539492 267.745884,149.403628 267.745884,163.132105 C267.745884,168.923807 270.095355,173.91103 274.794368,178.093926 C279.493382,182.276821 287.022369,184.368237 297.381557,184.368237 C307.740745,184.368237 316.284277,180.882544 323.012409,173.911051 C329.740542,166.939559 333.318146,158.198511 333.745329,147.687646 Z M496.643634,204.96085 C482.546595,210.538044 471.440003,213.326599 463.323526,213.326599 C455.207049,213.326599 448.105238,212.36133 442.01788,210.430763 C435.930522,208.500196 430.537418,205.604389 425.838405,201.743255 C416.013195,192.948449 411.100665,180.828959 411.100665,165.384422 L411.100665,77.8658176 L389.31444,77.8658176 L389.31444,52.446811 L411.100665,52.446811 L411.100665,11.2615852 L448.906172,11.2615852 L448.906172,52.446811 L491.197078,52.446811 L491.197078,77.8658176 L448.906172,77.8658176 L448.906172,164.097384 C448.906172,176.967832 454.993438,183.402959 467.168154,183.402959 C473.362307,183.402959 481.371869,181.686925 491.197078,178.254805 L496.643634,204.96085 Z M568.8728,117.442245 C581.261107,117.442245 595.571523,119.480036 611.804477,123.555677 L611.804477,108.111218 C611.804477,97.1713375 609.615197,89.0738024 605.236571,83.8183697 C600.857945,78.562937 593.702737,75.9352601 583.770732,75.9352601 C573.838727,75.9352601 566.202946,77.9194243 560.863158,81.8878123 C555.523371,85.8562002 552.853517,91.4869365 552.853517,98.78019 L511.523768,98.78019 C511.523768,80.9760711 517.771225,68.1058167 530.266328,60.1690408 C542.761431,52.2322649 560.222275,48.2639365 582.649383,48.2639365 C614.688108,48.2639365 635.406173,59.5254091 644.804199,82.048692 C648.008072,89.7709605 649.609984,98.8873907 649.609984,109.398256 L649.609984,208.821965 L616.610262,208.821965 L613.726791,187.907593 C603.68799,204.853682 588.309633,213.326599 567.591257,213.326599 C547.513656,213.326599 531.92171,208.393002 520.814952,198.525659 C510.562559,189.087331 505.43644,177.128719 505.43644,162.649466 C505.43644,148.170213 511.09653,137.015992 522.41688,129.18647 C533.737229,121.356948 549.222381,117.442245 568.8728,117.442245 Z M611.804477,147.687646 C599.202578,144.255526 587.455222,142.539492 576.562055,142.539492 C556.057271,142.539492 545.805032,149.403628 545.805032,163.132105 C545.805032,168.923807 548.154504,173.91103 552.853517,178.093926 C557.55253,182.276821 565.081517,184.368237 575.440705,184.368237 C585.799893,184.368237 594.343425,180.882544 601.071558,173.911051 C607.79969,166.939559 611.377294,158.198511 611.804477,147.687646 Z M724.081849,79.4746154 C734.334241,58.6673921 750.78054,48.2639365 773.42124,48.2639365 C792.644475,48.2639365 807.115082,54.5918116 816.833496,67.2477515 C826.551909,79.9036915 831.411043,96.6350222 831.411043,117.442245 L831.411043,208.821965 L793.605536,208.821965 L793.605536,117.442245 C793.605536,105.858843 790.828888,97.1177951 785.275509,91.21884 C779.72213,85.3198849 771.926157,82.3704516 761.887356,82.3704516 C751.848556,82.3704516 743.251627,86.8750407 736.096311,95.8843538 C728.940996,104.893667 725.149803,118.407434 724.72262,136.426061 L724.72262,208.821965 L686.917113,208.821965 L686.917113,52.446811 L719.916836,52.446811 L724.081849,79.4746154 Z" id="Natan"></path>
            <path d="M0,452.165882 L0,414.198252 C16.4460189,423.63658 32.3578374,428.355673 47.735933,428.355673 C56.9200734,428.355673 63.594494,425.67437 67.7593948,420.311684 C71.9242957,414.948998 74.0067149,406.797836 74.0067149,395.857956 L74.0067149,252.031425 L112.131386,252.031425 L112.131386,395.857956 C112.131386,419.882791 106.364687,437.793895 94.8311152,449.591805 C84.5790515,460.102671 70.4826754,465.358025 52.5415639,465.358025 C34.6004523,465.358025 17.0867729,460.960688 0,452.165882 Z M200.377007,369.473671 C212.764918,369.473671 227.074875,371.511461 243.30731,375.587103 L243.30731,360.142643 C243.30731,349.202763 241.1181,341.105228 236.739614,335.849795 C232.361129,330.594362 225.20615,327.966685 215.274463,327.966685 C205.342776,327.966685 197.707239,329.95085 192.367623,333.919238 C187.028006,337.887626 184.358238,343.518362 184.358238,350.811615 L143.029813,350.811615 C143.029813,333.007496 149.27707,320.137242 161.771773,312.200466 C174.266476,304.26369 191.72676,300.295362 214.153149,300.295362 C246.190848,300.295362 266.90825,311.556834 276.305975,334.080117 C279.509745,341.802386 281.111606,350.918816 281.111606,361.429681 L281.111606,460.853391 L248.11294,460.853391 L245.229562,439.939018 C235.191083,456.885107 219.813218,465.358025 199.095506,465.358025 C179.018548,465.358025 163.427101,460.424427 152.320699,450.557084 C142.068635,441.118756 136.94268,429.160145 136.94268,414.680891 C136.94268,400.201638 142.602589,389.047418 153.922576,381.217895 C165.242563,373.388373 180.727219,369.473671 200.377007,369.473671 Z M243.30731,399.719071 C230.705815,396.286952 218.958834,394.570918 208.066017,394.570918 C187.561889,394.570918 177.309979,401.435053 177.309979,415.163531 C177.309979,420.955232 179.659375,425.942456 184.358238,430.125351 C189.0571,434.308246 196.585847,436.399663 206.944703,436.399663 C217.303559,436.399663 225.846817,432.913969 232.574734,425.942477 C239.302651,418.970984 242.88014,410.229936 243.30731,399.719071 Z M456.819708,334.080117 C466.858187,311.556834 484.478657,300.295362 509.681647,300.295362 C528.263513,300.295362 542.680261,306.623237 552.932325,319.279177 C562.757219,331.291594 567.669593,348.022925 567.669593,369.473671 L567.669593,460.853391 L529.544921,460.853391 L529.544921,369.473671 C529.544921,357.890268 526.768362,349.14922 521.215161,343.250265 C515.66196,337.35131 507.866237,334.401877 497.827758,334.401877 C487.789279,334.401877 479.566393,338.799214 473.158853,347.59402 C466.751313,356.388825 463.33401,369.688088 462.90684,387.492207 L462.90684,460.853391 L425.102544,460.853391 L425.102544,369.473671 C425.102544,357.890268 422.325985,349.14922 416.772784,343.250265 C411.219583,337.35131 403.42386,334.401877 393.385381,334.401877 C383.346902,334.401877 374.750248,338.906466 367.595162,347.915779 C360.440076,356.925092 356.649005,370.438859 356.221836,388.457486 L356.221836,460.853391 L318.41754,460.853391 L318.41754,304.478236 L351.416205,304.478236 L355.581085,331.506041 C365.833149,310.698817 382.278921,300.295362 404.918895,300.295362 C417.947559,300.295362 428.786818,303.298421 437.436997,309.30463 C446.087176,315.310839 452.548015,323.569252 456.819708,334.080117 Z M713.262408,323.140292 C718.602025,330.00453 722.606677,337.941187 725.276486,346.9505 C727.946294,355.959814 729.281178,364.218227 729.281178,371.725988 C729.281178,379.233749 728.854015,385.990632 727.999676,391.996841 L627.401804,391.996841 C627.828973,404.652781 630.925905,414.948985 636.69269,422.885761 C642.459476,430.822536 651.216316,434.790865 662.963472,434.790865 C678.555153,434.790865 687.845946,427.926729 690.836131,414.198252 L728.960803,414.198252 C726.397787,429.857296 719.242808,442.19129 707.495651,451.200603 C695.321326,460.638931 680.477415,465.358025 662.963472,465.358025 C642.459345,465.358025 625.266038,457.850376 611.383035,442.834854 C597.072862,427.17581 589.917884,407.119664 589.917884,382.665813 C589.917884,357.568441 597.072862,337.405043 611.383035,322.175013 C625.052453,307.588506 642.24576,300.295362 662.963472,300.295362 C684.535523,300.295362 701.301667,307.910262 713.262408,323.140292 Z M663.283848,330.540762 C652.604615,330.540762 644.274938,334.026456 638.294567,340.997948 C632.314197,347.969441 628.790103,356.924993 627.72218,367.864873 L694.039885,367.864873 C694.039885,350.918784 688.700349,339.550059 678.021116,333.758358 C673.963007,331.613283 669.050634,330.540762 663.283848,330.540762 Z M777.800251,413.232973 C778.22742,428.033988 789.013284,435.434384 810.158165,435.434384 C818.274382,435.434384 824.948803,433.664724 830.181627,430.125351 C835.414451,426.585978 838.030824,422.456771 838.030824,417.737607 C838.030824,413.018443 836.428963,409.371871 833.225193,406.797782 C830.021423,404.223692 825.002259,401.864146 818.16755,399.719071 L784.207759,387.492207 C759.004769,378.697401 746.403463,364.325617 746.403463,344.376424 C746.403463,331.076962 752.330348,320.405376 764.184297,312.361346 C776.038245,304.317316 791.950064,300.295362 811.92023,300.295362 C831.890396,300.295362 847.26826,304.692699 858.054286,313.487505 C868.840311,322.28231 874.446824,333.329279 874.873994,346.628741 L839.312326,346.628741 C838.885156,341.480562 836.428969,337.404981 831.943692,334.401877 C827.458414,331.398773 821.05097,329.897243 812.721168,329.897243 C804.391366,329.897243 797.930527,331.559651 793.338457,334.884516 C788.746387,338.209382 786.450386,342.016832 786.450386,346.306981 C786.450386,353.814742 792.751039,359.391853 805.352534,363.038479 L842.195704,376.874141 C854.37003,380.949783 863.714218,386.151511 870.228551,392.479481 C876.742883,398.807451 880,407.012238 880,417.094088 C880,429.964536 873.912928,441.118756 861.738603,450.557084 C849.137108,460.424427 832.477754,465.358025 811.760042,465.358025 C791.04233,465.358025 774.382976,460.79981 761.781481,451.683243 C749.179986,442.566676 742.772543,429.750047 742.558958,413.232973 L777.800251,413.232973 Z" id="James"></path>
            <path d="M102.895064,512.938773 C115.712065,512.938773 126.819965,514.49285 136.219099,517.601051 C145.618233,520.709252 153.735545,525.04995 160.571279,530.623275 C174.029129,541.555568 182.787281,556.881983 186.845998,576.602981 L146.472648,583.998318 C143.054782,573.066026 137.767848,564.223863 130.61169,557.471565 C123.455531,550.719267 114.537168,547.343168 103.856335,547.343168 C89.3304007,547.343168 77.5816597,553.452299 68.6097593,565.670743 C58.9970089,578.960981 54.1907058,597.341962 54.1907058,620.814236 C54.1907058,644.286511 58.4629752,662.613903 67.0076423,675.796962 C75.5523093,688.98002 87.1942435,695.57145 101.933794,695.57145 C116.673345,695.57145 127.781245,691.980996 135.257829,684.799981 C142.734413,677.618965 146.472648,668.348092 146.472648,656.987082 L187.166422,656.987082 C187.166422,680.352177 179.743354,698.411625 164.896995,711.165966 C150.050636,723.920307 129.703952,730.297382 103.856335,730.297382 C76.2997834,730.297382 54.4044026,720.651386 38.1695352,701.359106 C21.7210512,681.638108 13.4969325,654.843675 13.4969325,620.975005 C13.4969325,586.677617 21.9346646,559.883184 38.810382,540.590904 C55.0452494,522.156058 76.4065966,512.938773 102.895064,512.938773 Z M251.393514,600.396675 C260.792648,577.889014 274.891137,566.635352 293.689405,566.635352 C297.320888,566.635352 301.913578,567.385597 307.467612,568.886107 L306.826765,606.827403 C300.845498,605.541251 294.971127,604.898185 289.203477,604.898185 C263.996709,604.898185 251.393514,622.368154 251.393514,657.308618 L251.393514,725.795872 L213.583552,725.795872 L213.583552,569.207644 L251.393514,569.207644 L251.393514,600.396675 Z M332.282625,569.207644 L370.092587,569.207644 L370.092587,725.795872 L332.282625,725.795872 L332.282625,569.207644 Z M327.796697,519.047965 C327.796697,512.188487 329.826025,506.776012 333.884742,502.810376 C337.943459,498.844741 343.711022,496.861953 351.187606,496.861953 C358.450573,496.861953 364.164733,498.844741 368.330258,502.810376 C372.495784,506.776012 374.578515,512.188487 374.578515,519.047965 C374.578515,525.907442 372.495784,531.319918 368.330258,535.285553 C364.164733,539.251189 358.450573,541.233977 351.187606,541.233977 C343.711022,541.233977 337.943459,539.251189 333.884742,535.285553 C329.826025,531.319918 327.796697,525.907442 327.796697,519.047965 Z M437.523914,678.208485 C437.951147,692.999233 448.738628,700.394496 469.886679,700.394496 C478.004112,700.394496 484.679533,698.626064 489.913142,695.089146 C495.14675,691.552228 497.763516,687.425885 497.763516,682.709994 C497.763516,677.994103 496.161414,674.350061 492.957164,671.777756 C489.752914,669.205452 484.732998,666.847542 477.897264,664.703956 L443.932382,652.485572 C418.725615,643.696867 406.12242,629.335051 406.12242,609.399694 C406.12242,596.109456 412.050194,585.445272 423.905919,577.406822 C435.761645,569.368372 451.675848,565.349207 471.649007,565.349207 C491.622167,565.349207 507.002337,569.743494 517.789979,578.532199 C528.577621,587.320905 534.184975,598.360211 534.612208,611.650449 L499.045209,611.650449 C498.617976,606.505841 496.161421,602.433087 491.675471,599.432066 C487.18952,596.431044 480.781116,594.930556 472.450066,594.930556 C464.119016,594.930556 457.657208,596.591811 453.06445,599.91437 C448.471691,603.23693 446.175346,607.041739 446.175346,611.328913 C446.175346,618.831466 452.476944,624.404708 465.080328,628.048806 L501.92902,641.874871 C514.10517,645.947686 523.45076,651.145806 529.966068,657.469387 C536.481377,663.792967 539.738982,671.992064 539.738982,682.066921 C539.738982,694.928442 533.650999,706.074926 521.474848,715.506707 C508.871464,725.367206 492.209613,730.297382 471.488796,730.297382 C450.767978,730.297382 434.106127,725.742328 421.502744,716.632085 C408.89936,707.521841 402.490955,694.714102 402.277339,678.208485 L437.523914,678.208485 Z M602.043535,590.750583 C611.869902,573.816247 626.822845,565.349207 646.902812,565.349207 C666.128313,565.349207 682.576551,572.637292 696.248018,587.213682 C710.773952,602.647507 718.03681,622.79692 718.03681,647.662526 C718.03681,672.742491 710.667145,692.999082 695.927594,708.432907 C682.256127,723.009296 665.914697,730.297382 646.902812,730.297382 C627.890928,730.297382 614.006053,724.616962 605.247769,713.255953 L605.247769,802 L567.437806,802 L567.437806,569.52918 L598.518877,569.52918 L602.043535,590.750583 Z M640.173921,695.892987 C644.659871,695.892987 649.305964,694.928387 654.112339,692.999159 C658.918714,691.069931 663.244387,688.068955 667.089487,683.99614 C675.634154,674.993076 679.906424,662.935581 679.906424,647.823294 C679.906424,632.711008 676.221591,620.867869 668.851816,612.293522 C661.482041,603.719175 652.510275,599.432066 641.93625,599.432066 C631.362224,599.432066 622.710878,602.486631 615.981953,608.595853 C609.253028,614.705075 605.675002,623.44006 605.247769,634.80107 L605.247769,662.774737 C605.247769,672.849595 608.772391,680.995102 615.821741,687.211504 C622.443858,692.999188 630.56117,695.892987 640.173921,695.892987 Z" id="Crisp"></path>
        </g>
    </g>
</svg>