<?xml version="1.0" encoding="UTF-8"?>
<svg width="1280px" height="1280px" viewBox="0 0 1280 1280" version="1.1" xmlns="http://www.w3.org/2000/svg" xmlns:xlink="http://www.w3.org/1999/xlink">
    <!-- Generator: Sketch 55.1 (78136) - https://sketchapp.com -->
    <title>favicon-zoomed</title>
    <desc>Created with Sketch.</desc>
    <g id="favicon-zoomed" stroke="none" stroke-width="1" fill="none" fill-rule="evenodd">
        <rect fill="#000000" x="0" y="0" width="1280" height="1280"></rect>
        <g id="Group" transform="translate(28.000000, 102.000000)" fill="#FFFFFF" fill-rule="nonzero">
            <path d="M95.65306,0 L223.935475,207.250077 L223.935475,0 L276.863185,0 L276.863185,292.402827 L223.038396,292.402827 L90.7191209,77.9440509 L90.7191209,292.402827 L37.791411,292.402827 L37.791411,0 L95.65306,0 Z M407.139112,164.448431 C424.482742,164.448431 444.517324,167.301846 467.24346,173.00876 L467.24346,151.382665 C467.24346,136.064105 464.178468,124.725536 458.048392,117.36662 C451.918316,110.007704 441.901024,106.328301 427.996218,106.328301 C414.091411,106.328301 403.401316,109.106625 395.925614,114.663358 C388.449911,120.220091 384.712116,128.104526 384.712116,138.3169 L326.850467,138.3169 C326.850467,113.386693 335.596908,95.3651274 353.090052,84.2516619 C370.583196,73.1381964 395.028377,67.581547 426.426328,67.581547 C471.280544,67.581547 500.285835,83.3504169 513.443071,114.88863 C517.928493,125.701731 520.17117,138.467007 520.17117,153.18484 L520.17117,292.402827 L473.971559,292.402827 L469.9347,263.11749 C455.880379,286.84624 434.350678,298.710438 405.344952,298.710438 C377.23631,298.710438 355.407586,291.802171 339.858124,277.98543 C325.504775,264.769417 318.328209,248.024379 318.328209,227.749813 C318.328209,207.475248 326.252334,191.856558 342.100824,180.893274 C357.949314,169.929991 379.628526,164.448431 407.139112,164.448431 Z M467.24346,206.799534 C449.600802,201.993711 433.154503,199.590835 417.904069,199.590835 C389.197371,199.590835 374.844238,209.202337 374.844238,228.425629 C374.844238,236.535455 378.133498,243.518812 384.712116,249.375908 C391.290734,255.233005 401.831317,258.16151 416.33418,258.16151 C430.837043,258.16151 442.797988,253.280669 452.217373,243.518841 C461.636758,233.757013 466.645404,221.517367 467.24346,206.799534 Z M695.301088,286.996303 C675.565233,294.805765 660.016004,298.710438 648.652936,298.710438 C637.289868,298.710438 627.347333,297.35882 618.825032,294.655545 C610.302731,291.952269 602.752385,287.897417 596.173766,282.490866 C582.418474,270.175945 575.54093,253.205638 575.54093,231.579434 L575.54093,109.031562 L545.040216,109.031562 L545.040216,73.4386144 L575.54093,73.4386144 L575.54093,15.7690276 L628.46864,15.7690276 L628.46864,73.4386144 L687.675909,73.4386144 L687.675909,109.031562 L628.46864,109.031562 L628.46864,229.77726 C628.46864,247.799096 636.990813,256.809879 654.035415,256.809879 C662.70723,256.809879 673.920616,254.407003 687.675909,249.60118 L695.301088,286.996303 Z M796.421919,164.448431 C813.765549,164.448431 833.800132,167.301846 856.526268,173.00876 L856.526268,151.382665 C856.526268,136.064105 853.461276,124.725536 847.3312,117.36662 C841.201123,110.007704 831.183832,106.328301 817.279025,106.328301 C803.374218,106.328301 792.684124,109.106625 785.208421,114.663358 C777.732719,120.220091 773.994924,128.104526 773.994924,138.3169 L716.133275,138.3169 C716.133275,113.386693 724.879716,95.3651274 742.37286,84.2516619 C759.866004,73.1381964 784.311185,67.581547 815.709136,67.581547 C860.563351,67.581547 889.568642,83.3504169 902.725879,114.88863 C907.211301,125.701731 909.453978,138.467007 909.453978,153.18484 L909.453978,292.402827 L863.254367,292.402827 L859.217507,263.11749 C845.163186,286.84624 823.633486,298.710438 794.62776,298.710438 C766.519118,298.710438 744.690394,291.802171 729.140932,277.98543 C714.787583,264.769417 707.611016,248.024379 707.611016,227.749813 C707.611016,207.475248 715.535142,191.856558 731.383632,180.893274 C747.232121,169.929991 768.911334,164.448431 796.421919,164.448431 Z M856.526268,206.799534 C838.88361,201.993711 822.437311,199.590835 807.186877,199.590835 C778.480179,199.590835 764.127045,209.202337 764.127045,228.425629 C764.127045,236.535455 767.416305,243.518812 773.994924,249.375908 C780.573542,255.233005 791.114124,258.16151 805.616988,258.16151 C820.119851,258.16151 832.080795,253.280669 841.500181,243.518841 C850.919566,233.757013 855.928212,221.517367 856.526268,206.799534 Z M1013.71459,111.284281 C1028.06794,82.1489792 1051.09276,67.581547 1082.78974,67.581547 C1109.70227,67.581547 1129.96112,76.4421501 1143.56689,94.1636221 C1157.17267,111.885094 1163.97546,135.31313 1163.97546,164.448431 L1163.97546,292.402827 L1111.04775,292.402827 L1111.04775,164.448431 C1111.04775,148.228779 1107.16044,135.989132 1099.38571,127.729124 C1091.61098,119.469116 1080.69662,115.339174 1066.6423,115.339174 C1052.58798,115.339174 1040.55228,121.646722 1030.53484,134.262007 C1020.51739,146.877292 1015.20972,165.799936 1014.61167,191.030506 L1014.61167,292.402827 L961.683959,292.402827 L961.683959,73.4386144 L1007.88357,73.4386144 L1013.71459,111.284281 Z" id="Natan"></path>
            <path d="M0,633.144994 L0,579.980844 C23.0244264,593.196857 45.3009724,599.804765 66.8303062,599.804765 C79.6881028,599.804765 89.0322915,596.050272 94.8631528,588.541173 C100.694014,581.032075 103.609401,569.618417 103.609401,554.299856 L103.609401,352.906846 L156.983941,352.906846 L156.983941,554.299856 C156.983941,587.940617 148.910562,613.020629 132.763561,629.540645 C118.410672,644.258478 98.6757455,651.617284 73.5581894,651.617284 C48.4406333,651.617284 23.921482,645.459916 0,633.144994 Z M280.52781,517.355277 C297.870885,517.355277 317.904825,520.208692 340.630233,525.915607 L340.630233,504.289512 C340.630233,488.970951 337.565339,477.632383 331.43546,470.273466 C325.30558,462.91455 315.28861,459.235147 301.384248,459.235147 C287.479887,459.235147 276.790135,462.013472 269.314672,467.570204 C261.839209,473.126937 258.101533,481.011372 258.101533,491.223746 L200.241738,491.223746 C200.241738,466.293539 208.987898,448.271974 226.480482,437.158508 C243.973066,426.045043 268.417464,420.488393 299.814409,420.488393 C344.667188,420.488393 373.671549,436.257263 386.828365,467.795476 C391.313642,478.608578 393.556248,491.373853 393.556248,506.091686 L393.556248,645.309673 L347.358117,645.309673 L343.321387,616.024336 C329.267516,639.753087 307.738505,651.617284 278.733708,651.617284 C250.625967,651.617284 228.797942,644.709017 213.248979,630.892276 C198.896089,617.676263 191.719752,600.931225 191.719752,580.65666 C191.719752,560.382094 199.643624,544.763404 215.491606,533.80012 C231.339588,522.836837 253.018106,517.355277 280.52781,517.355277 Z M340.630233,559.70638 C322.98814,554.900557 306.542368,552.497682 291.292423,552.497682 C262.586645,552.497682 248.233971,562.109183 248.233971,581.332475 C248.233971,589.442301 251.523126,596.425658 258.101533,602.282755 C264.679941,608.139851 275.220186,611.068356 289.722584,611.068356 C304.224983,611.068356 316.185544,606.187515 325.604628,596.425687 C335.023711,586.663859 340.032196,574.424213 340.630233,559.70638 Z M639.547591,467.795476 C653.601462,436.257263 678.27012,420.488393 713.554306,420.488393 C739.568918,420.488393 759.752365,429.348996 774.105255,447.070468 C787.860107,463.890849 794.73743,487.318884 794.73743,517.355277 L794.73743,645.309673 L741.36289,645.309673 L741.36289,517.355277 C741.36289,501.135625 737.475707,488.895978 729.701226,480.63597 C721.926744,472.375962 711.012732,468.24602 696.958861,468.24602 C682.90499,468.24602 671.39295,474.403388 662.422394,486.718309 C653.451838,499.033231 648.667614,517.655515 648.069576,542.585721 L648.069576,645.309673 L595.143562,645.309673 L595.143562,517.355277 C595.143562,501.135625 591.25638,488.895978 583.481898,480.63597 C575.707416,472.375962 564.793404,468.24602 550.739533,468.24602 C536.685663,468.24602 524.650347,474.553568 514.633227,487.168853 C504.616106,499.784138 499.308607,518.706782 498.71057,543.937352 L498.71057,645.309673 L445.784556,645.309673 L445.784556,426.345461 L491.982687,426.345461 L497.813519,464.191127 C512.166408,435.055825 535.190489,420.488393 566.886453,420.488393 C585.126583,420.488393 600.301545,424.693425 612.411796,433.103615 C624.522046,441.513805 633.567221,453.077643 639.547591,467.795476 Z M998.567372,452.476992 C1006.04283,462.088638 1011.64935,473.201937 1015.38708,485.817222 C1019.12481,498.432507 1020.99365,509.996345 1020.99365,520.509083 C1020.99365,531.02182 1020.39562,540.483142 1019.19955,548.893333 L878.362526,548.893333 C878.960563,566.614805 883.296266,581.032057 891.369767,592.145523 C899.443267,603.258988 911.702842,608.815638 928.148861,608.815638 C949.977214,608.815638 962.984324,599.204136 967.170584,579.980844 L1020.54512,579.980844 C1016.9569,601.907411 1006.93993,619.178078 990.493912,631.793363 C973.449856,645.009377 952.66838,651.617284 928.148861,651.617284 C899.443083,651.617284 875.372453,641.104704 855.936249,620.079229 C835.902007,598.152662 825.885037,570.069055 825.885037,535.827567 C825.885037,500.684987 835.902007,472.4512 855.936249,451.125361 C875.073434,430.700614 899.144064,420.488393 928.148861,420.488393 C958.349732,420.488393 981.822334,431.151153 998.567372,452.476992 Z M928.597387,462.839496 C913.646461,462.839496 901.984913,467.720337 893.612394,477.482165 C885.239876,487.243992 880.306144,499.783998 878.811051,515.102559 L971.655839,515.102559 C971.655839,491.373808 964.180488,475.454759 949.229562,467.344932 C943.54821,464.341293 936.670887,462.839496 928.597387,462.839496 Z M1088.92035,578.629213 C1089.51839,599.354325 1104.6186,609.716725 1134.22143,609.716725 C1145.58414,609.716725 1154.92832,607.23876 1162.25428,602.282755 C1169.58023,597.32675 1173.24315,591.544831 1173.24315,584.936824 C1173.24315,578.328818 1171.00055,573.222707 1166.51527,569.61834 C1162.02999,566.013973 1155.00316,562.710019 1145.43457,559.70638 L1097.89086,542.585721 C1062.60668,530.2708 1044.96485,510.146719 1044.96485,482.212873 C1044.96485,463.590309 1053.26249,448.647427 1069.85802,437.38378 C1086.45354,426.120132 1108.73009,420.488393 1136.68832,420.488393 C1164.64655,420.488393 1186.17556,426.645761 1201.276,438.960683 C1216.37644,451.275604 1224.22555,466.744115 1224.82359,485.366678 L1175.03726,485.366678 C1174.43922,478.157944 1171.00056,472.451115 1164.72117,468.24602 C1158.44178,464.040925 1149.47136,461.938409 1137.80964,461.938409 C1126.14791,461.938409 1117.10274,464.266194 1110.67384,468.921835 C1104.24494,473.577476 1101.03054,478.908856 1101.03054,484.916135 C1101.03054,495.428872 1109.85146,503.238217 1127.49355,508.344404 L1179.07399,527.717781 C1196.11804,533.424696 1209.19991,540.708412 1218.31997,549.569148 C1227.44004,558.429884 1232,569.918632 1232,584.035737 C1232,602.057573 1223.4781,617.676263 1206.43404,630.892276 C1188.79195,644.709017 1165.46886,651.617284 1136.46406,651.617284 C1107.45926,651.617284 1084.13617,645.234646 1066.49407,632.469179 C1048.85198,619.703712 1039.88156,601.757236 1039.58254,578.629213 L1088.92035,578.629213 Z" id="James"></path>
            <path d="M144.05309,718.242197 C161.996891,718.242197 177.547952,720.418293 190.706739,724.770549 C203.865526,729.122805 215.229763,735.200865 224.79979,743.00491 C243.640781,758.312846 255.902194,779.773649 261.584398,807.387965 L205.061708,817.743281 C200.276694,802.435345 192.874987,790.054113 182.856365,780.599211 C172.837743,771.14431 160.352036,766.41693 145.398868,766.41693 C125.062561,766.41693 108.614324,774.971236 96.0536631,792.080106 C82.5958125,810.689753 75.8669881,836.427709 75.8669881,869.294748 C75.8669881,902.161786 81.8481653,927.824705 93.8106992,946.284274 C105.773233,964.743843 122.071941,973.97349 142.707312,973.97349 C163.342683,973.97349 178.893743,968.945959 189.360961,958.890746 C199.828178,948.835534 205.061708,935.853999 205.061708,919.945752 L262.03299,919.945752 C262.03299,952.662712 251.640695,977.950442 230.855792,995.8097 C210.07089,1013.66896 181.585533,1022.59845 145.398868,1022.59845 C106.819697,1022.59845 76.1661636,1009.09165 53.4373493,982.07765 C30.4094716,954.463335 18.8957055,916.944448 18.8957055,869.519863 C18.8957055,821.494967 30.7085305,783.97608 54.3345349,756.962076 C77.0633492,731.148694 106.969235,718.242197 144.05309,718.242197 Z M351.95092,840.70507 C365.109707,809.188732 384.847592,793.430799 411.165167,793.430799 C416.249244,793.430799 422.679009,794.481328 430.454656,796.582417 L429.557471,849.709693 C421.183697,847.908759 412.959578,847.008306 404.884868,847.008306 C369.595393,847.008306 351.95092,871.47062 351.95092,920.395983 L351.95092,1016.29522 L299.016973,1016.29522 L299.016973,797.032648 L351.95092,797.032648 L351.95092,840.70507 Z M465.195674,797.032648 L518.129622,797.032648 L518.129622,1016.29522 L465.195674,1016.29522 L465.195674,797.032648 Z M458.915376,726.796589 C458.915376,717.19161 461.756435,709.612795 467.438638,704.059916 C473.120842,698.507037 481.195431,695.73064 491.662648,695.73064 C501.830802,695.73064 509.830627,698.507037 515.662362,704.059916 C521.494097,709.612795 524.409921,717.19161 524.409921,726.796589 C524.409921,736.401568 521.494097,743.980383 515.662362,749.533262 C509.830627,755.086141 501.830802,757.862538 491.662648,757.862538 C481.195431,757.862538 473.120842,755.086141 467.438638,749.533262 C461.756435,743.980383 458.915376,736.401568 458.915376,726.796589 Z M612.53348,949.661008 C613.131606,970.371744 628.234079,980.726957 657.84135,980.726957 C669.205757,980.726957 678.551347,978.25071 685.878399,973.298143 C693.205451,968.345576 696.868922,962.567667 696.868922,955.964244 C696.868922,949.360821 694.62598,944.258252 690.14003,940.656385 C685.65408,937.054518 678.626197,933.752855 669.05617,930.751299 L621.505335,913.642516 C586.21586,901.336136 568.571388,881.226013 568.571388,853.311542 C568.571388,834.701895 576.870271,819.769378 593.468287,808.513543 C610.066302,797.257708 632.346188,791.629874 660.30861,791.629874 C688.271033,791.629874 709.803271,797.782972 724.90597,810.089352 C740.008669,822.395731 747.858964,837.853513 748.457091,856.46316 L698.663293,856.46316 C698.065166,849.259425 694.625989,843.556555 688.345659,839.354376 C682.065329,835.152198 673.093563,833.05114 661.430092,833.05114 C649.766622,833.05114 640.720091,835.377311 634.290229,840.029723 C627.860367,844.682135 624.645485,850.009817 624.645485,856.012929 C624.645485,866.518375 633.467721,874.322303 651.112459,879.424948 L702.700628,898.784888 C719.747239,904.487844 732.831064,911.766508 741.952496,920.621099 C751.073928,929.475689 755.634575,940.956468 755.634575,955.063781 C755.634575,973.073117 747.111398,988.680975 730.064787,1001.88782 C712.42005,1015.69498 689.093459,1022.59845 660.084314,1022.59845 C631.075169,1022.59845 607.748578,1016.22024 590.103841,1003.46363 C572.459103,990.707017 563.487338,972.772989 563.188274,949.661008 L612.53348,949.661008 Z M842.860949,827.198135 C856.617863,803.485843 877.551983,791.629874 905.663937,791.629874 C932.579639,791.629874 955.607171,801.835012 974.747225,822.245593 C995.083532,843.856796 1005.25153,872.070999 1005.25153,906.889049 C1005.25153,942.007254 994.934003,970.371532 974.298632,991.982736 C955.158578,1012.39332 932.280575,1022.59845 905.663937,1022.59845 C879.0473,1022.59845 859.608474,1014.64445 847.346876,998.736203 L847.346876,1123 L794.412929,1123 L794.412929,797.482879 L837.926428,797.482879 L842.860949,827.198135 Z M896.243489,974.423721 C902.523819,974.423721 909.02835,973.073041 915.757275,970.371641 C922.4862,967.67024 928.542142,963.468125 933.925282,957.765168 C945.887816,945.158633 951.868993,928.275134 951.868993,907.114164 C951.868993,885.953194 946.710228,869.369846 936.392543,857.363622 C926.074857,845.357398 913.514385,839.354376 898.710749,839.354376 C883.907114,839.354376 871.79523,843.631529 862.374734,852.185964 C852.954239,860.740399 847.945003,872.971556 847.346876,888.879803 L847.346876,928.049913 C847.346876,942.157226 852.281348,953.562967 862.150438,962.26748 C871.421402,970.371681 882.785638,974.423721 896.243489,974.423721 Z" id="Crisp"></path>
        </g>
    </g>
</svg>